<svg id="Layer_1" data-name="Layer 1" xmlns="http://www.w3.org/2000/svg" xmlns:xlink="http://www.w3.org/1999/xlink" viewBox="0 0 600 600"><defs><style>.cls-1{fill:url(#linear-gradient);}.cls-2{fill:url(#linear-gradient-2);}</style><linearGradient id="linear-gradient" x1="123.6" y1="300" x2="476.4" y2="300" gradientUnits="userSpaceOnUse"><stop offset="0" stop-color="#433081"/><stop offset="1" stop-color="#d93b5f"/></linearGradient><linearGradient id="linear-gradient-2" x1="202.15" x2="397.85" xlink:href="#linear-gradient"/></defs><g id="YrOmWs.tif"><path class="cls-1" d="M300,77.49h0L123.6,142.32V329.83S125.68,412.52,301,522.52C476.4,412.52,476.4,329.83,476.4,329.83V142.32ZM442.55,325.41a36.52,36.52,0,0,1-1.21,9.25c-21.56,79.54-140.87,147.1-140.87,147.1S180.22,414.2,158.66,334.66a36.52,36.52,0,0,1-1.21-9.25L156.31,165.1,300,112,443.69,165.1Z"/><polygon class="cls-2" points="202.15 297.14 227.21 275.42 271.36 326.49 374.46 225.54 397.85 249.4 269.21 374.46 202.15 297.14"/></g></svg>