<?xml version="1.0" encoding="utf-8"?>
<!-- Generator: Adobe Illustrator 26.0.2, SVG Export Plug-In . SVG Version: 6.00 Build 0)  -->
<svg version="1.1" id="Capa_1" xmlns="http://www.w3.org/2000/svg" xmlns:xlink="http://www.w3.org/1999/xlink" x="0px" y="0px"
	 viewBox="0 0 548.6 443.1" style="enable-background:new 0 0 548.6 443.1;" xml:space="preserve">
<style type="text/css">
	.st0{fill:url(#SVGID_1_);}
	.st1{clip-path:url(#SVGID_00000149341068461238663340000013489883555059923384_);}
	.st2{fill:#D32626;}
	.st3{fill:#FFFFFF;}
	.st4{opacity:0.4;fill:#FFFFFF;}
	.st5{fill:url(#SVGID_00000137819222569307466710000009503485233293967279_);}
	.st6{clip-path:url(#SVGID_00000139263388666647870170000014221674651390156963_);}
	.st7{fill:none;stroke:#3636AD;stroke-width:14;stroke-miterlimit:10;}
	.st8{fill:#ED1C24;}
	.st9{fill:#F15A24;}
	.st10{fill:url(#SVGID_00000010995384251456020290000001479419816302476171_);}
	.st11{clip-path:url(#SVGID_00000177476626085633772520000003613624371895560332_);}
	.st12{fill:#2D185C;}
	.st13{fill:none;}
</style>
<g>
	<g>
		
			<linearGradient id="SVGID_1_" gradientUnits="userSpaceOnUse" x1="220.5568" y1="-205.1522" x2="512.9254" y2="-81.0499" gradientTransform="matrix(0.9528 -0.3037 -0.3037 -0.9528 -8.9085 338.7832)">
			<stop  offset="0" style="stop-color:#FF325D"/>
			<stop  offset="1" style="stop-color:#2D185C"/>
		</linearGradient>
		<path class="st0" d="M241.3,319.9l233.4-74.4c10.7-3.4,22,2.1,25.3,12.4l39.9,125.3c3.3,10.2-2.8,21.3-13.5,24.7L293,482.2
			c-10.7,3.4-22-2.1-25.3-12.4l-39.9-125.3C224.5,334.3,230.6,323.3,241.3,319.9z"/>
		<g>
			<defs>
				<path id="SVGID_00000146466429195214484360000013379281567213368751_" d="M241.3,319.9l233.4-74.4c10.7-3.4,22,2.1,25.3,12.4
					l39.9,125.3c3.3,10.2-2.8,21.3-13.5,24.7L293,482.2c-10.7,3.4-22-2.1-25.3-12.4l-39.9-125.3
					C224.5,334.3,230.6,323.3,241.3,319.9z"/>
			</defs>
			<clipPath id="SVGID_00000102546627769090017000000011698818679439185825_">
				<use xlink:href="#SVGID_00000146466429195214484360000013379281567213368751_"  style="overflow:visible;"/>
			</clipPath>
			<g style="clip-path:url(#SVGID_00000102546627769090017000000011698818679439185825_);">
				
					<ellipse transform="matrix(0.9528 -0.3037 0.3037 0.9528 -70.1522 108.017)" class="st2" cx="312.2" cy="279.6" rx="6.7" ry="6.4"/>
				
					<ellipse transform="matrix(0.9528 -0.3037 0.3037 0.9528 -74.1825 112.8923)" class="st2" cx="325.9" cy="294.9" rx="6.7" ry="6.4"/>
				
					<ellipse transform="matrix(0.9528 -0.3037 0.3037 0.9528 -78.2123 117.7665)" class="st2" cx="339.5" cy="310.3" rx="6.7" ry="6.4"/>
				
					<ellipse transform="matrix(0.9528 -0.3037 0.3037 0.9528 -82.2421 122.6407)" class="st2" cx="353.2" cy="325.7" rx="6.7" ry="6.4"/>
				
					<ellipse transform="matrix(0.9528 -0.3037 0.3037 0.9528 -86.2718 127.5149)" class="st2" cx="366.8" cy="341.1" rx="6.7" ry="6.4"/>
				
					<ellipse transform="matrix(0.9528 -0.3037 0.3037 0.9528 -90.3016 132.3891)" class="st2" cx="380.5" cy="356.5" rx="6.7" ry="6.4"/>
				
					<ellipse transform="matrix(0.9528 -0.3037 0.3037 0.9528 -94.3308 137.2614)" class="st2" cx="394.1" cy="371.9" rx="6.7" ry="6.4"/>
				
					<ellipse transform="matrix(0.9528 -0.3037 0.3037 0.9528 -98.3605 142.1356)" class="st2" cx="407.8" cy="387.3" rx="6.7" ry="6.4"/>
				
					<ellipse transform="matrix(0.9528 -0.3037 0.3037 0.9528 -102.3903 147.0098)" class="st2" cx="421.4" cy="402.7" rx="6.7" ry="6.4"/>
				
					<ellipse transform="matrix(0.9528 -0.3037 0.3037 0.9528 -106.4201 151.884)" class="st2" cx="435.1" cy="418.1" rx="6.7" ry="6.4"/>
				
					<ellipse transform="matrix(0.9528 -0.3037 0.3037 0.9528 -110.4499 156.7582)" class="st2" cx="448.8" cy="433.5" rx="6.7" ry="6.4"/>
				
					<ellipse transform="matrix(0.9528 -0.3037 0.3037 0.9528 -114.4796 161.6323)" class="st2" cx="462.4" cy="448.9" rx="6.7" ry="6.4"/>
				
					<ellipse transform="matrix(0.9528 -0.3037 0.3037 0.9528 -118.5094 166.5065)" class="st2" cx="476.1" cy="464.3" rx="6.7" ry="6.4"/>
				
					<ellipse transform="matrix(0.9528 -0.3037 0.3037 0.9528 -122.5411 171.3845)" class="st2" cx="489.7" cy="479.7" rx="6.7" ry="6.4"/>
				
					<ellipse transform="matrix(0.9528 -0.3037 0.3037 0.9528 -66.553 117.0693)" class="st2" cx="343.1" cy="272.5" rx="6" ry="5.8"/>
				
					<ellipse transform="matrix(0.9528 -0.3037 0.3037 0.9528 -70.1821 121.4588)" class="st2" cx="355.4" cy="286.4" rx="6" ry="5.8"/>
				
					<ellipse transform="matrix(0.9528 -0.3037 0.3037 0.9528 -73.8112 125.8483)" class="st2" cx="367.7" cy="300.2" rx="6" ry="5.8"/>
				
					<ellipse transform="matrix(0.9528 -0.3037 0.3037 0.9528 -77.4403 130.2378)" class="st2" cx="380" cy="314.1" rx="6" ry="5.8"/>
				
					<ellipse transform="matrix(0.9528 -0.3037 0.3037 0.9528 -81.0706 134.6279)" class="st2" cx="392.3" cy="328" rx="6" ry="5.8"/>
				
					<ellipse transform="matrix(0.9528 -0.3037 0.3037 0.9528 -84.6996 139.0174)" class="st2" cx="404.6" cy="341.8" rx="6" ry="5.8"/>
				
					<ellipse transform="matrix(0.9528 -0.3037 0.3037 0.9528 -88.3287 143.4069)" class="st2" cx="416.9" cy="355.7" rx="6" ry="5.8"/>
				
					<ellipse transform="matrix(0.9528 -0.3037 0.3037 0.9528 -91.9578 147.7964)" class="st2" cx="429.2" cy="369.5" rx="6" ry="5.8"/>
				
					<ellipse transform="matrix(0.9528 -0.3037 0.3037 0.9528 -95.5869 152.1858)" class="st2" cx="441.5" cy="383.4" rx="6" ry="5.8"/>
				
					<ellipse transform="matrix(0.9528 -0.3037 0.3037 0.9528 -99.2159 156.5753)" class="st2" cx="453.8" cy="397.3" rx="6" ry="5.8"/>
				
					<ellipse transform="matrix(0.9528 -0.3037 0.3037 0.9528 -102.845 160.9648)" class="st2" cx="466.1" cy="411.1" rx="6" ry="5.8"/>
				
					<ellipse transform="matrix(0.9528 -0.3037 0.3037 0.9528 -106.4758 165.3583)" class="st2" cx="478.4" cy="425" rx="6" ry="5.8"/>
				
					<ellipse transform="matrix(0.9528 -0.3037 0.3037 0.9528 -110.1031 169.7438)" class="st2" cx="490.7" cy="438.9" rx="6" ry="5.8"/>
				
					<ellipse transform="matrix(0.9528 -0.3037 0.3037 0.9528 -113.7322 174.1333)" class="st2" cx="503" cy="452.7" rx="6" ry="5.8"/>
				
					<ellipse transform="matrix(0.9528 -0.3037 0.3037 0.9528 -62.5264 124.6134)" class="st2" cx="369.4" cy="263.3" rx="5.5" ry="5.3"/>
				
					<ellipse transform="matrix(0.9528 -0.3037 0.3037 0.9528 -65.8759 128.6641)" class="st2" cx="380.7" cy="276.1" rx="5.5" ry="5.3"/>
				
					<ellipse transform="matrix(0.9528 -0.3037 0.3037 0.9528 -69.2236 132.7154)" class="st2" cx="392.1" cy="288.9" rx="5.5" ry="5.3"/>
				
					<ellipse transform="matrix(0.9528 -0.3037 0.3037 0.9528 -72.572 136.7655)" class="st2" cx="403.4" cy="301.7" rx="5.5" ry="5.3"/>
				
					<ellipse transform="matrix(0.9528 -0.3037 0.3037 0.9528 -75.9215 140.8162)" class="st2" cx="414.8" cy="314.5" rx="5.5" ry="5.3"/>
				
					<ellipse transform="matrix(0.9528 -0.3037 0.3037 0.9528 -79.2699 144.8663)" class="st2" cx="426.1" cy="327.3" rx="5.5" ry="5.3"/>
				
					<ellipse transform="matrix(0.9528 -0.3037 0.3037 0.9528 -82.6182 148.9163)" class="st2" cx="437.5" cy="340.1" rx="5.5" ry="5.3"/>
				
					<ellipse transform="matrix(0.9528 -0.3037 0.3037 0.9528 -85.9678 152.967)" class="st2" cx="448.8" cy="352.9" rx="5.5" ry="5.3"/>
				
					<ellipse transform="matrix(0.9528 -0.3037 0.3037 0.9528 -89.3146 157.013)" class="st2" cx="460.2" cy="365.7" rx="5.5" ry="5.3"/>
				
					<ellipse transform="matrix(0.9528 -0.3037 0.3037 0.9528 -92.6645 161.0672)" class="st2" cx="471.5" cy="378.5" rx="5.5" ry="5.3"/>
				
					<ellipse transform="matrix(0.9528 -0.3037 0.3037 0.9528 -96.014 165.1179)" class="st2" cx="482.9" cy="391.2" rx="5.5" ry="5.3"/>
				
					<ellipse transform="matrix(0.9528 -0.3037 0.3037 0.9528 -99.3624 169.1679)" class="st2" cx="494.2" cy="404" rx="5.5" ry="5.3"/>
				
					<ellipse transform="matrix(0.9528 -0.3037 0.3037 0.9528 -102.7107 173.218)" class="st2" cx="505.5" cy="416.8" rx="5.5" ry="5.3"/>
				
					<ellipse transform="matrix(0.9528 -0.3037 0.3037 0.9528 -106.0603 177.2687)" class="st2" cx="516.9" cy="429.6" rx="5.5" ry="5.3"/>
				
					<ellipse transform="matrix(0.9528 -0.3037 0.3037 0.9528 -57.8248 132.8236)" class="st2" cx="398.1" cy="252.3" rx="5.1" ry="4.9"/>
				
					<ellipse transform="matrix(0.9528 -0.3037 0.3037 0.9528 -60.9308 136.5819)" class="st2" cx="408.7" cy="264.2" rx="5.1" ry="4.9"/>
				
					<ellipse transform="matrix(0.9528 -0.3037 0.3037 0.9528 -64.0374 140.3389)" class="st2" cx="419.2" cy="276.1" rx="5.1" ry="4.9"/>
				
					<ellipse transform="matrix(0.9528 -0.3037 0.3037 0.9528 -67.1446 144.0978)" class="st2" cx="429.7" cy="287.9" rx="5.1" ry="4.9"/>
				
					<ellipse transform="matrix(0.9528 -0.3037 0.3037 0.9528 -70.2524 147.8589)" class="st2" cx="440.2" cy="299.8" rx="5.1" ry="4.9"/>
				
					<ellipse transform="matrix(0.9528 -0.3037 0.3037 0.9528 -73.359 151.6125)" class="st2" cx="450.8" cy="311.7" rx="5.1" ry="4.9"/>
				
					<ellipse transform="matrix(0.9528 -0.3037 0.3037 0.9528 -76.465 155.3708)" class="st2" cx="461.3" cy="323.5" rx="5.1" ry="4.9"/>
				
					<ellipse transform="matrix(0.9528 -0.3037 0.3037 0.9528 -79.5728 159.1284)" class="st2" cx="471.8" cy="335.4" rx="5.1" ry="4.9"/>
				
					<ellipse transform="matrix(0.9528 -0.3037 0.3037 0.9528 -82.6788 162.8867)" class="st2" cx="482.3" cy="347.3" rx="5.1" ry="4.9"/>
				
					<ellipse transform="matrix(0.9528 -0.3037 0.3037 0.9528 -85.7854 166.6437)" class="st2" cx="492.9" cy="359.1" rx="5.1" ry="4.9"/>
				
					<ellipse transform="matrix(0.9528 -0.3037 0.3037 0.9528 -88.8926 170.4026)" class="st2" cx="503.4" cy="371" rx="5.1" ry="4.9"/>
				
					<ellipse transform="matrix(0.9528 -0.3037 0.3037 0.9528 -91.9992 174.1597)" class="st2" cx="513.9" cy="382.9" rx="5.1" ry="4.9"/>
				
					<ellipse transform="matrix(0.9528 -0.3037 0.3037 0.9528 -95.1071 177.9173)" class="st2" cx="524.5" cy="394.7" rx="5.1" ry="4.9"/>
				
					<ellipse transform="matrix(0.9528 -0.3037 0.3037 0.9528 -98.2131 181.6756)" class="st2" cx="535" cy="406.6" rx="5.1" ry="4.9"/>
				
					<ellipse transform="matrix(0.9528 -0.3037 0.3037 0.9528 -52.4665 140.6065)" class="st2" cx="425.8" cy="239" rx="4.8" ry="4.6"/>
				
					<ellipse transform="matrix(0.9528 -0.3037 0.3037 0.9528 -55.3464 144.0891)" class="st2" cx="435.6" cy="250" rx="4.8" ry="4.6"/>
				
					<ellipse transform="matrix(0.9528 -0.3037 0.3037 0.9528 -58.2269 147.5735)" class="st2" cx="445.3" cy="261" rx="4.8" ry="4.6"/>
				
					<ellipse transform="matrix(0.9528 -0.3037 0.3037 0.9528 -61.1061 151.0572)" class="st2" cx="455.1" cy="272" rx="4.8" ry="4.6"/>
				
					<ellipse transform="matrix(0.9528 -0.3037 0.3037 0.9528 -63.986 154.5398)" class="st2" cx="464.9" cy="283" rx="4.8" ry="4.6"/>
				
					<ellipse transform="matrix(0.9528 -0.3037 0.3037 0.9528 -66.8664 158.0242)" class="st2" cx="474.6" cy="294" rx="4.8" ry="4.6"/>
				
					<ellipse transform="matrix(0.9528 -0.3037 0.3037 0.9528 -69.7463 161.5067)" class="st2" cx="484.4" cy="305" rx="4.8" ry="4.6"/>
				
					<ellipse transform="matrix(0.9528 -0.3037 0.3037 0.9528 -72.6268 164.9911)" class="st2" cx="494.1" cy="316" rx="4.8" ry="4.6"/>
				
					<ellipse transform="matrix(0.9528 -0.3037 0.3037 0.9528 -75.5067 168.4736)" class="st2" cx="503.9" cy="327" rx="4.8" ry="4.6"/>
				
					<ellipse transform="matrix(0.9528 -0.3037 0.3037 0.9528 -78.3871 171.958)" class="st2" cx="513.7" cy="338" rx="4.8" ry="4.6"/>
				
					<ellipse transform="matrix(0.9528 -0.3037 0.3037 0.9528 -81.267 175.4405)" class="st2" cx="523.4" cy="349" rx="4.8" ry="4.6"/>
				
					<ellipse transform="matrix(0.9528 -0.3037 0.3037 0.9528 -84.1462 178.9243)" class="st2" cx="533.2" cy="360" rx="4.8" ry="4.6"/>
				
					<ellipse transform="matrix(0.9528 -0.3037 0.3037 0.9528 -87.0267 182.4087)" class="st2" cx="542.9" cy="371" rx="4.8" ry="4.6"/>
				
					<ellipse transform="matrix(0.9528 -0.3037 0.3037 0.9528 -89.9066 185.8912)" class="st2" cx="552.7" cy="382" rx="4.8" ry="4.6"/>
				
					<ellipse transform="matrix(0.9528 -0.3037 0.3037 0.9528 -47.8063 149.0589)" class="st2" cx="455.3" cy="228.2" rx="4.3" ry="4.1"/>
				
					<ellipse transform="matrix(0.9528 -0.3037 0.3037 0.9528 -50.4006 152.1964)" class="st2" cx="464.1" cy="238.1" rx="4.3" ry="4.1"/>
				
					<ellipse transform="matrix(0.9528 -0.3037 0.3037 0.9528 -52.9955 155.3358)" class="st2" cx="472.9" cy="248.1" rx="4.3" ry="4.1"/>
				
					<ellipse transform="matrix(0.9528 -0.3037 0.3037 0.9528 -55.5911 158.474)" class="st2" cx="481.7" cy="258" rx="4.3" ry="4.1"/>
				
					<ellipse transform="matrix(0.9528 -0.3037 0.3037 0.9528 -58.1848 161.6128)" class="st2" cx="490.5" cy="267.9" rx="4.3" ry="4.1"/>
				
					<ellipse transform="matrix(0.9528 -0.3037 0.3037 0.9528 -60.7804 164.751)" class="st2" cx="499.3" cy="277.8" rx="4.3" ry="4.1"/>
				
					<ellipse transform="matrix(0.9528 -0.3037 0.3037 0.9528 -63.3759 167.8891)" class="st2" cx="508.1" cy="287.7" rx="4.3" ry="4.1"/>
				
					<ellipse transform="matrix(0.9528 -0.3037 0.3037 0.9528 -65.9696 171.028)" class="st2" cx="516.9" cy="297.6" rx="4.3" ry="4.1"/>
				
					<ellipse transform="matrix(0.9528 -0.3037 0.3037 0.9528 -68.5652 174.1661)" class="st2" cx="525.7" cy="307.5" rx="4.3" ry="4.1"/>
				
					<ellipse transform="matrix(0.9528 -0.3037 0.3037 0.9528 -71.1589 177.3049)" class="st2" cx="534.5" cy="317.4" rx="4.3" ry="4.1"/>
				
					<ellipse transform="matrix(0.9528 -0.3037 0.3037 0.9528 -73.7545 180.4431)" class="st2" cx="543.3" cy="327.3" rx="4.3" ry="4.1"/>
				
					<ellipse transform="matrix(0.9528 -0.3037 0.3037 0.9528 -76.3494 183.5825)" class="st2" cx="552.1" cy="337.3" rx="4.3" ry="4.1"/>
				
					<ellipse transform="matrix(0.9528 -0.3037 0.3037 0.9528 -74.9255 101.1596)" class="st2" cx="287.8" cy="291.5" rx="8.5" ry="8.1"/>
				
					<ellipse transform="matrix(0.9528 -0.3037 0.3037 0.9528 -80.0536 107.3617)" class="st2" cx="305.1" cy="311.1" rx="8.5" ry="8.1"/>
				
					<ellipse transform="matrix(0.9528 -0.3037 0.3037 0.9528 -85.1804 113.5633)" class="st2" cx="322.5" cy="330.6" rx="8.5" ry="8.1"/>
				
					<ellipse transform="matrix(0.9528 -0.3037 0.3037 0.9528 -90.3073 119.7648)" class="st2" cx="339.9" cy="350.2" rx="8.5" ry="8.1"/>
				
					<ellipse transform="matrix(0.9528 -0.3037 0.3037 0.9528 -95.4342 125.9664)" class="st2" cx="357.3" cy="369.8" rx="8.5" ry="8.1"/>
				
					<ellipse transform="matrix(0.9528 -0.3037 0.3037 0.9528 -100.5629 132.1673)" class="st2" cx="374.6" cy="389.4" rx="8.5" ry="8.1"/>
				
					<ellipse transform="matrix(0.9528 -0.3037 0.3037 0.9528 -105.6898 138.3688)" class="st2" cx="392" cy="409" rx="8.5" ry="8.1"/>
				
					<ellipse transform="matrix(0.9528 -0.3037 0.3037 0.9528 -110.8167 144.5704)" class="st2" cx="409.4" cy="428.6" rx="8.5" ry="8.1"/>
				
					<ellipse transform="matrix(0.9528 -0.3037 0.3037 0.9528 -115.9448 150.7725)" class="st2" cx="426.8" cy="448.2" rx="8.5" ry="8.1"/>
				
					<ellipse transform="matrix(0.9528 -0.3037 0.3037 0.9528 -121.0717 156.9741)" class="st2" cx="444.1" cy="467.7" rx="8.5" ry="8.1"/>
				
					<ellipse transform="matrix(0.9528 -0.3037 0.3037 0.9528 -126.1986 163.1756)" class="st2" cx="461.5" cy="487.3" rx="8.5" ry="8.1"/>
				
					<ellipse transform="matrix(0.9528 -0.3037 0.3037 0.9528 -131.3255 169.3772)" class="st2" cx="478.9" cy="506.9" rx="8.5" ry="8.1"/>
			</g>
		</g>
		<polygon class="st3" points="466.9,380.7 469.7,401.9 475.5,400.1 472.6,378.8 		"/>
		<path class="st3" d="M458.5,383.4l-1.2,15.5L456,397c-1.9-2.1-6.2-4.7-10.6-5.8l10.5,15.1l6.1-1.9l2.6-22.9L458.5,383.4z"/>
		<path class="st3" d="M450.6,387.5c-0.7-1.1-1.8-1.2-3-0.8l-8.9,2.8l0.1,0.4c7.4-0.6,13.2,1.8,16.6,5.9L450.6,387.5z"/>
		<path class="st3" d="M485.5,379c1.5-0.5,3-0.7,4.5-0.6l0.6,0.1l-0.6-4.6c-1.8,0-3.6,0.2-5.4,0.8c-5.7,1.8-8.8,5.8-7.5,9.7
			c0.9,2.9,4.3,3.6,6.8,3.9c2.5,0.3,3.5,0.7,3.8,1.5c0.4,1.3-1.1,2.5-2.8,3.1c-1.8,0.6-3.8,0.9-5.7,0.7l-0.8-0.1l0.6,4.8
			c1.5,0.1,4.1-0.2,6.7-1c6-1.9,9.1-5.9,7.8-10c-0.7-2.3-2.8-3.5-6.5-3.9c-2.3-0.3-3.7-0.5-4-1.5C482.5,380.9,483.2,379.7,485.5,379
			z"/>
		<path class="st3" d="M504.5,368.7l-4.4,1.4c-1.4,0.4-2.3,1.1-2.5,2.6l-2.6,21.1l6-1.9c0,0,0.2-2.8,0.2-3.4l7.3-2.3
			c0.4,0.6,1.7,2.8,1.7,2.8l5.3-1.7L504.5,368.7z M501.6,383.9c0.1-1.3,0.5-6.3,0.5-6.3s0.1-1.3,0.1-2.2l0.9,1.6
			c0,0,2.6,4.5,3.2,5.4L501.6,383.9z"/>
		<path class="st3" d="M427.4,279.8l-2.1,9.6l-4.5-4l0.8-3.7l-2.8-2.5l1.3-5.8L427.4,279.8z"/>
		<path class="st3" d="M438.5,277.8l0.4-1.7l-1.3-1.2c-0.8-0.7-2-1.2-3.7-0.6l-3.5,1.1l2.8,2.6l-0.8,3.7l3.5-1.2
			C437.6,279.9,438.3,278.9,438.5,277.8"/>
		<path class="st3" d="M447.4,279.3l-7.9-9.7l1.8-0.6l5.7,7.2l0.4-9.2l1.8-0.6l-0.8,12.5L447.4,279.3L447.4,279.3z M456.1,270.7
			c-0.3-1.1-1.6-2.1-3.7-1.4c-1.1,0.4-2,1.2-2.5,2.2l1.4,0.6c0.2-0.7,0.7-1.3,1.5-1.5c1.3-0.4,1.7,0.2,1.8,0.6l0.2,0.7l-2.1,0.7
			c-1.5,0.5-2.6,1.7-2,3.5c0.4,1.3,1.6,2,3.5,1.4c0.8-0.3,1.5-0.7,1.8-1.6l0.2,0.7l1.5-0.5L456.1,270.7z M455.5,274.2
			c0.2,0.5,0,1.4-1.5,1.9c-0.8,0.2-1.5,0.2-1.8-0.5c-0.3-0.9,0.1-1.7,1-1.9l1.9-0.6L455.5,274.2z M456.9,263.7l-1.6,0.5l3.7,11.4
			l1.5-0.5L456.9,263.7L456.9,263.7z M459.9,262.7l-1.5,0.5l3.6,11.4l1.6-0.5L459.9,262.7z M470.8,267.8c-0.1-0.3-0.2-0.5-0.3-0.7
			c-0.9-1.7-2.9-2.7-4.7-2.1c-2,0.7-3.2,3-2.5,5.2c0.7,2.2,3,3.4,5.2,2.7c1.1-0.4,2-1.2,2.4-2.2l-1.4-0.7c-0.2,0.8-0.7,1.3-1.5,1.6
			c-1.1,0.4-2.3-0.3-3-1.4l5.9-1.9L470.8,267.8z M464.8,268.9c-0.1-1.2,0.4-2.3,1.4-2.6c1-0.4,2.1,0.2,2.8,1.3L464.8,268.9z
			 M475.9,270.2c0.3-3.4,0.8-8.3,0.8-8.3l-1.5,0.5l-0.5,5.5l-3.6-4.2l-1.6,0.5l5,5.7c-0.1,1.3,0,4.1-1.3,4.1c-0.2,0-0.5,0-0.6-0.1
			l0,1.5c0.2,0,0.5,0,0.6,0.1c0.3,0,0.6,0,0.9-0.1C475.3,274.8,475.6,272.9,475.9,270.2L475.9,270.2z M430.4,275.4l3.5-1.1
			c1.7-0.5,2.9-0.1,3.7,0.6c0.1,0,0.1,0.1,0.1,0.1l-4.5-4c-1-0.9-2.2-1.2-3.8-0.7l-7.2,2.3l4.5,4L430.4,275.4z M435.9,280.5
			l-3.5,1.2l-3.6,1.2l-1.3,5.9l7.2-2.3c1.6-0.5,2.4-1.5,2.7-2.8l1.3-5.8l-0.1,0.1C438.3,278.9,437.6,279.9,435.9,280.5"/>
	</g>
	<path class="st4" d="M287.8,378.9l-28.4,9.5c-2.2,0.7-3.3,3.1-2.6,5.3l6.8,20.4c0.7,2.2,3.1,3.3,5.3,2.6l28.4-9.5
		c2.2-0.7,3.3-3.1,2.6-5.3l-6.8-20.4C292.3,379.3,290,378.2,287.8,378.9z M293,392.3l-8.6,2.9l-1.3-4c-0.1-0.3,0.1-0.7,0.4-0.8
		l8-2.7L293,392.3z M284.7,396.3l8.6-2.9l1.5,4.6l-8.6,2.9L284.7,396.3z M293.4,390.2l1.2-0.4l1.5,4.6l-1.2,0.4L293.4,390.2z
		 M293.1,389.1l-1.5-4.6l1.2-0.4l1.5,4.6L293.1,389.1z M291,386.6l-8,2.7c-0.9,0.3-1.4,1.3-1.1,2.2l5.1,15.4l-10.3,3.4l-7.2-21.6
		l19.3-6.5c0.3-0.1,0.7,0.1,0.8,0.4L291,386.6z M272,399.4l-8.6,2.9l-1.5-4.6l8.6-2.9L272,399.4z M263.3,405.4l-1.2,0.4l-1.5-4.6
		l1.2-0.4L263.3,405.4z M263.7,403.3l8.6-2.9l1.5,4.6l-8.6,2.9L263.7,403.3z M274.9,385.7l-0.4-1.2l9.7-3.3l0.4,1.2L274.9,385.7z
		 M273.8,386.1l-9.7,3.3l-0.4-1.2l9.7-3.3L273.8,386.1z M268.5,389.1l1.5,4.6l-8.6,2.9l-1.3-4c-0.1-0.3,0.1-0.7,0.4-0.8L268.5,389.1
		z M261.4,399.7l-1.2,0.4l-1.5-4.6l1.2-0.4L261.4,399.7z M262.4,406.9l1.2-0.4l1.5,4.6l-1.2,0.4L262.4,406.9z M265.6,409l8.6-2.9
		l1.5,4.6l-8,2.7c-0.3,0.1-0.7-0.1-0.8-0.4L265.6,409z M281.8,409.9l0.4,1.2l-9.7,3.3l-0.4-1.2L281.8,409.9z M282.9,409.5l9.7-3.3
		l0.4,1.2l-9.7,3.3L282.9,409.5z M288.2,406.5l-1.5-4.6l8.6-2.9l1.3,4c0.1,0.3-0.1,0.7-0.4,0.8L288.2,406.5z M295.3,395.9l1.2-0.4
		l1.5,4.6l-1.2,0.4L295.3,395.9z M292,381.9l0.4,1.2l-1.2,0.4l-0.4-1.2c-0.3-0.9-1.3-1.4-2.2-1.1l-2.9,1l-0.4-1.2l2.9-1
		C289.7,379.4,291.4,380.3,292,381.9z M259.8,389.5l2.9-1l0.4,1.2l-2.9,1c-0.9,0.3-1.4,1.3-1.1,2.2l0.4,1.2l-1.2,0.4l-0.4-1.2
		C257.3,391.7,258.2,390,259.8,389.5z M264.7,413.7l-0.4-1.2l1.2-0.4l0.4,1.2c0.3,0.9,1.3,1.4,2.2,1.1l2.9-1l0.4,1.2l-2.9,1
		C266.9,416.2,265.2,415.3,264.7,413.7z M296.9,406.1l-2.9,1l-0.4-1.2l2.9-1c0.9-0.3,1.4-1.3,1.1-2.2l-0.4-1.2l1.2-0.4l0.4,1.2
		C299.4,403.9,298.5,405.6,296.9,406.1z"/>
</g>
<g>
	<g>
		<g>
			
				<linearGradient id="SVGID_00000140006162439870956960000007171755560469386121_" gradientUnits="userSpaceOnUse" x1="-4.4657" y1="-103.827" x2="279.4057" y2="16.6682" gradientTransform="matrix(0.9484 -0.3171 -0.3171 -0.9484 17.8843 357.8145)">
				<stop  offset="0" style="stop-color:#070793"/>
				<stop  offset="1.000000e-02" style="stop-color:#090793"/>
				<stop  offset="0.28" style="stop-color:#29078A"/>
				<stop  offset="0.54" style="stop-color:#400884"/>
				<stop  offset="0.79" style="stop-color:#4E0880"/>
				<stop  offset="1" style="stop-color:#53087F"/>
			</linearGradient>
			<path style="fill:url(#SVGID_00000140006162439870956960000007171755560469386121_);" d="M22.8,312.5l224.4-75
				c10.2-3.4,21.3,2.1,24.7,12.3l41.6,124.3c3.4,10.2-2.1,21.3-12.3,24.7l-224.4,75c-10.2,3.4-21.3-2.1-24.7-12.3L10.5,337.2
				C7,327,12.6,315.9,22.8,312.5z"/>
			<g>
				<defs>
					<path id="SVGID_00000015323546112458662130000002092507842620412546_" d="M22.8,312.5l224.4-75c10.2-3.4,21.3,2.1,24.7,12.3
						l41.6,124.3c3.4,10.2-2.1,21.3-12.3,24.7l-224.4,75c-10.2,3.4-21.3-2.1-24.7-12.3L10.5,337.2C7,327,12.6,315.9,22.8,312.5z"/>
				</defs>
				<clipPath id="SVGID_00000028287289157524987300000005335321347315869083_">
					<use xlink:href="#SVGID_00000015323546112458662130000002092507842620412546_"  style="overflow:visible;"/>
				</clipPath>
				<g style="clip-path:url(#SVGID_00000028287289157524987300000005335321347315869083_);">
					<path class="st7" d="M-70.4,442.5c-2.3,8.9-7.2,21.4,3.1,26.5c7,3.5,16.4,4.8,24,6.8c11.4,2.9,33.7,3.5,40.9,13.9
						c7.1,10.4,4.4,19.2,19,22.7c13.9,3.4,28.1,5.8,42.1,8.9c19.1,4.4,36.1,4,55.7,2.1c10.4-1,21-2.2,31.5-1.7
						c10.5,0.5,19.1,3.5,30,2.3c12.8-1.4,25.4-4.2,38.2-6.1c10.6-1.6,22.4-3.9,32.5,0.8c14.1,6.6,27.5,16.1,40.6,24.6"/>
					<path class="st7" d="M-10.6,362.2c4.5,14.9-13.1,45.3,5.7,51.4c14.9,4.8,31.1,7,46.2,11.1c5.6,1.5,12.3,2.6,15.8,7.8
						c3.1,4.7,2.7,11,3.6,16.3c2.3,13.3,13.8,15.7,24.6,21.1c10.2,5.2,19.9,12.2,30.3,16.9c17.5,8,40,2.6,58.7,5.6
						c9,1.4,16.3,6.3,25.6,6.6c12.6,0.3,25.4-2.3,38-3.8c11.6-1.3,23.3-3,33.8,2.9c7.2,4,14.2,8.5,21.5,12.5"/>
					<path class="st7" d="M28.2,299.7c6.6,2.1,18.3,3.4,20.3,11.3c2.6,10.1-4.6,23.9-7.2,33.4c-2.2,8-5.8,18.4,1.7,24.4
						c4.9,4,11.9,6.6,17.4,9.8c8.5,5,25.2,11.7,29.5,21c5.2,11.3-5,25.8,3.1,36.3c6.4,8.3,20.4,14.2,29.3,19.7
						c5.2,3.2,10.5,6.8,16.1,9.3c8.5,3.7,18,3.6,27.2,3.5c11.7,0,23.5-1.1,35.1-0.4c9.7,0.5,18.6,3.7,28.3,3.3
						c27.6-1,56.9-16.4,83.8-5.8"/>
					<path class="st7" d="M44.6,257.4c10,6.3,33.7,16.1,32.8,29.7c-0.8,11-6.4,21.9-9.8,32.2c-2.6,7.8-7.8,19.8-1.4,26.8
						c7.6,8.3,23.4,14.5,33.3,19.7c5,2.6,12.2,4.8,15.7,9.3c3.3,4.3,3.3,10.2,3.8,15.3c0.4,4.6,0.6,9.6,3.3,13.5
						c3.5,5,10.4,6.5,15.9,8.7c12.6,5,25.3,10.9,38.2,15.1c20.6,6.7,43.5,0.9,64.8,1.2c10.6,0.2,20.5,3.9,31,3.4
						c18.4-0.9,36.8-6,54.9-8.9"/>
					<path class="st7" d="M47.5,227.4c14.8,1.2,29.6,12.9,43.3,19c6.8,3,14.3,4.1,16.2,11.9c2.1,9.1-3.6,21.1-6,29.8
						c-1.8,6.7-5.8,18-0.1,23.8c3.9,3.9,12.6,5.7,17.8,7.8c11.3,4.5,27.5,7.8,37.1,15.3c9,7.1,3.6,19.9,8.8,28.8
						c5.3,9.1,24.4,12.8,33.8,16.5c16.9,6.7,30.2,11.6,48.9,11c13.3-0.4,26.7-2.1,40-1.5c4.6,0.2,9.2,0.9,13.6,1.9
						c8.6,2,15.2,1.3,24.1,0.4"/>
					<path class="st7" d="M38.8,206.7c15.2-5.4,35-15.5,51.6-14.8c7.8,0.3,16,5.1,23.2,7.9c9.7,3.8,34.8,8.7,36.5,20.3
						c1.3,8.6-3.3,18.5-5.5,26.6c-1.8,6.5-6.6,18.9-1.8,25.2c3.3,4.3,12.5,6.3,17.4,8.2l18.2,7.2c10.4,4.1,23.3,6.2,25.7,18.7
						c1,5.4,0.1,11.3,2.2,16.4c2.6,6.5,8,8.1,14,10.5c13.7,5.5,27.3,11.5,41.2,16.3c23.5,8.2,51,0.3,75.4,1.9"/>
					<path class="st7" d="M40.7,176.7c17.2,0.6,33.4-6.4,49.3-12c13.2-4.7,28.9-12.3,43.2-11.6c13.4,0.6,28.9,9.8,41.5,14.8
						c5.7,2.3,15.1,3.8,17.6,10c2.9,7.3-1.2,17.3-3.2,24.4c-2,7.1-7.9,20.3-4.8,28c2.5,6.1,10.5,7.5,16.1,9.8
						c11.8,4.7,24.2,8.7,35.7,14.1c13.4,6.3,9.1,15.7,12.8,27.9c3.7,12.3,22.6,15.2,33.3,19.5c6.7,2.7,13.5,5.3,20.2,8
						c13,5.1,26.5,4,40.2,3.3"/>
				</g>
			</g>
			<path class="st8" d="M253.2,365.8c-9.1-5.1-20.6-1.9-25.8,7.2c-5.1,9.1-1.9,20.6,7.2,25.8s20.6,1.9,25.8-7.2
				c0.3-0.6,0.6-1.1,0.9-1.7C252.7,385.1,249.3,374.7,253.2,365.8z"/>
			<path class="st9" d="M264.5,355.4c-5.1,1.7-9.2,5.5-11.3,10.4c8.5,4.7,12,15.1,8,24c9.1,5.1,20.6,1.9,25.7-7.2
				c5.1-9.1,1.9-20.6-7.2-25.7C275.1,354.2,269.6,353.7,264.5,355.4z"/>
			
				<ellipse transform="matrix(0.9484 -0.3171 0.3171 0.9484 -106.5359 101.0709)" class="st8" cx="257.2" cy="377.8" rx="4.9" ry="12.7"/>
		</g>
		<g>
			<g>
				<g>
					<path class="st3" d="M156.6,297.3L156.6,297.3l3.4-6.7l6.7,3.3l0,0l-3.3,6.7L156.6,297.3z M156.5,290.1l-2.9,5.8l0.7,2.2l0,0
						l0.7,2.2l5.8,2.9l5.9-2l2.9-5.8l-0.7-2.2l0,0l-0.7-2.2l-5.8-2.9L156.5,290.1L156.5,290.1z"/>
					<path class="st3" d="M158.4,302.7L158.4,302.7l3.4-6.7l6.7,3.3l0,0l-3.4,6.7L158.4,302.7z M158.3,295.5l-2.9,5.8l0.7,2.2l0,0
						l0.7,2.2l5.8,2.9l5.9-2l2.9-5.8l-0.7-2.2l0,0l-0.7-2.2l-5.8-2.9L158.3,295.5z"/>
					<g>
						<path class="st3" d="M186.4,293.1l-3.5,1.2c-1.9,0.6-2.4-0.8-2.4-0.8l-1.4-4.3l1.9-0.6l1.1,3.3c0,0,0.3,0.9,2,0.4
							c1.7-0.6,1.4-1.5,1.4-1.5l-1.1-3.3l1.9-0.6l1.4,4.3C187.9,291,188.3,292.4,186.4,293.1"/>
						<polygon class="st3" points="197.4,289.5 195.5,283.8 197.2,283.2 198.6,287.5 202.7,286.1 203.2,287.5 						"/>
						
							<rect x="203.4" y="281" transform="matrix(0.9491 -0.315 0.315 0.9491 -79.0631 78.7959)" class="st3" width="1.8" height="6"/>
						<path class="st3" d="M230.5,275.7l-2.1,0.7l0.4-2.3L230.5,275.7z M227.9,279.4l0.3-1.4l3.5-1.2l1,1l2.2-0.7l-5.3-4.6l-2.3,0.7
							l-1.5,6.8L227.9,279.4L227.9,279.4z"/>
						<polygon class="st3" points="235.5,276.8 233.6,271.1 236.1,270.3 241,273.5 239.5,269.1 241.1,268.6 243,274.3 240.4,275.2 
							235.6,272 237.1,276.3 						"/>
						<polygon class="st3" points="244.2,273.9 242.3,268.2 244,267.7 244.8,270.1 247.3,266.6 249.8,265.7 247.2,269.2 
							252.1,271.3 249.4,272.2 245.9,270.6 245.2,271.5 245.9,273.4 						"/>
						<path class="st3" d="M211.7,282.4c0.1,0.4-0.1,0.7-0.5,0.8l-2.4,0.8c-0.4,0.1-0.8-0.1-0.9-0.4l-0.6-1.8
							c-0.1-0.4,0.1-0.7,0.5-0.9l2.4-0.8c0.4-0.1,0.8,0,0.9,0.4l1.5-0.5l-0.3-0.8c-0.2-0.7-0.9-1-1.6-0.8l-4.4,1.5
							c-0.7,0.2-1,0.9-0.8,1.6l1.1,3.3c0.2,0.7,0.9,1,1.6,0.8l4.4-1.5c0.7-0.2,1-0.9,0.8-1.6l-0.3-0.8L211.7,282.4z"/>
						<path class="st3" d="M175.4,292.1l-1.7,0.6l0.4,1.2l2.7-0.9c0,0,0.5-0.2,0.3-0.7c-0.2-0.5-0.7-0.4-0.7-0.4l-1.3,0.4l-0.5-1.5
							l2.1-0.7c0,0,1.4-0.4,2.1,1.6c0.7,2.1-0.7,2.7-0.7,2.7l-3.5,1.2l0.5,1.4l-1.9,0.6l-1.9-5.7l3.6-1.2L175.4,292.1L175.4,292.1z"
							/>
						<path class="st3" d="M192.5,291.1l-3.1,1l-1.9-5.7l3.3-1.1l0.4,1.2l-1.7,0.6l0.4,1.2l3.1-1c0,0,0.5-0.2,0.3-0.7
							s-0.7-0.4-0.7-0.4l-1.6,0.5l-0.4-1.2l2.3-0.8c0,0,1.3-0.6,1.9,1c0,0,0.4,1.3-0.2,1.5c0,0,0.7-0.1,1.1,1.2c0,0,0.6,1.5-0.9,2
							L192.5,291.1l-0.5-1.3l1.7-0.6c0,0,0.5-0.2,0.3-0.7s-0.7-0.4-0.7-0.4l-3.1,1l0.4,1.2l1.5-0.5L192.5,291.1z"/>
						<path class="st3" d="M221.6,281.4l-3.1,1l-1.9-5.7l3.3-1.1l0.4,1.2l-1.7,0.6l0.4,1.2l3.1-1c0,0,0.5-0.2,0.3-0.7
							s-0.7-0.4-0.7-0.4l-1.6,0.5l-0.4-1.2l2.3-0.8c0,0,1.3-0.6,1.9,1c0,0,0.4,1.3-0.2,1.5c0,0,0.7-0.1,1.1,1.2c0,0,0.6,1.5-0.9,2
							L221.6,281.4l-0.5-1.3l1.7-0.6c0,0,0.5-0.2,0.3-0.7c-0.2-0.5-0.7-0.4-0.7-0.4l-3.1,1l0.4,1.2l1.5-0.5L221.6,281.4L221.6,281.4
							z"/>
					</g>
				</g>
			</g>
		</g>
	</g>
	<path class="st4" d="M72.4,370.6l-28.2,9.9c-2.2,0.8-3.3,3.1-2.5,5.3l7.1,20.3c0.8,2.2,3.1,3.3,5.3,2.5l28.2-9.9
		c2.2-0.8,3.3-3.1,2.5-5.3l-7.1-20.3C76.9,371,74.5,369.9,72.4,370.6z M77.7,384l-8.5,3l-1.4-4c-0.1-0.3,0.1-0.7,0.4-0.8l7.9-2.8
		L77.7,384z M69.5,388l8.5-3l1.6,4.6l-8.5,3L69.5,388z M78.1,381.8l1.2-0.4L81,386l-1.2,0.4L78.1,381.8z M77.8,380.8l-1.6-4.6
		l1.2-0.4l1.6,4.6L77.8,380.8z M75.7,378.3l-7.9,2.8c-0.9,0.3-1.4,1.3-1.1,2.2l5.3,15.3l-10.2,3.6l-7.5-21.5l19.2-6.7
		c0.3-0.1,0.7,0.1,0.8,0.4L75.7,378.3z M56.8,391.3l-8.5,3l-1.6-4.6l8.5-3L56.8,391.3z M48.2,397.5l-1.2,0.4l-1.6-4.6l1.2-0.4
		L48.2,397.5z M48.6,395.3l8.5-3l1.6,4.6l-8.5,3L48.6,395.3z M59.6,377.6l-0.4-1.2l9.7-3.4l0.4,1.2L59.6,377.6z M58.5,378l-9.7,3.4
		l-0.4-1.2l9.7-3.4L58.5,378z M53.2,381l1.6,4.6l-8.5,3l-1.4-4c-0.1-0.3,0.1-0.7,0.4-0.8L53.2,381z M46.2,391.8l-1.2,0.4l-1.6-4.6
		l1.2-0.4L46.2,391.8z M47.4,399l1.2-0.4l1.6,4.6l-1.2,0.4L47.4,399z M50.6,401l8.5-3l1.6,4.6l-7.9,2.8c-0.3,0.1-0.7-0.1-0.8-0.4
		L50.6,401z M66.8,401.7l0.4,1.2l-9.7,3.4l-0.4-1.2L66.8,401.7z M67.8,401.3l9.7-3.4l0.4,1.2l-9.7,3.4L67.8,401.3z M73.1,398.3
		l-1.6-4.6l8.5-3l1.4,4c0.1,0.3-0.1,0.7-0.4,0.8L73.1,398.3z M80.1,387.5l1.2-0.4l1.6,4.6l-1.2,0.4L80.1,387.5z M76.6,373.5l0.4,1.2
		l-1.2,0.4l-0.4-1.2c-0.3-0.9-1.3-1.4-2.2-1.1l-2.9,1l-0.4-1.2l2.9-1C74.3,371.1,76,372,76.6,373.5z M44.5,381.6l2.9-1l0.4,1.2
		l-2.9,1c-0.9,0.3-1.4,1.3-1.1,2.2l0.4,1.2l-1.2,0.4l-0.4-1.2C42.1,383.8,42.9,382.1,44.5,381.6z M49.7,405.8l-0.4-1.2l1.2-0.4
		l0.4,1.2c0.3,0.9,1.3,1.4,2.2,1.1l2.9-1l0.4,1.2l-2.9,1C52,408.2,50.3,407.3,49.7,405.8z M81.9,397.7l-2.9,1l-0.4-1.2l2.9-1
		c0.9-0.3,1.4-1.3,1.1-2.2l-0.4-1.2l1.2-0.4l0.4,1.2C84.3,395.5,83.4,397.2,81.9,397.7z"/>
</g>
<g>
	<g>
		
			<linearGradient id="SVGID_00000135686058590568619790000017770896643643160755_" gradientUnits="userSpaceOnUse" x1="168.7812" y1="104.0325" x2="461.7401" y2="228.3854" gradientTransform="matrix(0.9787 0.2053 0.2053 -0.9787 -55.8735 277.3393)">
			<stop  offset="1.973624e-02" style="stop-color:#190D34"/>
			<stop  offset="1" style="stop-color:#412384"/>
		</linearGradient>
		<path style="fill:url(#SVGID_00000135686058590568619790000017770896643643160755_);" d="M185.6,67.9l238.3,50
			c10.9,2.3,17.9,13,15.6,23.9l-28,133.5c-2.3,10.9-13,17.9-23.9,15.6l-238.3-50c-10.9-2.3-17.9-13-15.6-23.9l28-133.5
			C164,72.6,174.7,65.6,185.6,67.9z"/>
		<g>
			<defs>
				<path id="SVGID_00000127764606470520701350000013171588560727328387_" d="M185.6,67.9l238.3,50c10.9,2.3,17.9,13,15.6,23.9
					l-28,133.5c-2.3,10.9-13,17.9-23.9,15.6l-238.3-50c-10.9-2.3-17.9-13-15.6-23.9l28-133.5C164,72.6,174.7,65.6,185.6,67.9z"/>
			</defs>
			<clipPath id="SVGID_00000158720361506978255930000014939856261131487924_">
				<use xlink:href="#SVGID_00000127764606470520701350000013171588560727328387_"  style="overflow:visible;"/>
			</clipPath>
			<g style="clip-path:url(#SVGID_00000158720361506978255930000014939856261131487924_);">
				<polygon class="st12" points="232.1,178.6 238.5,35.4 133.2,74.8 				"/>
				<polygon class="st12" points="318.1,286.1 411.3,86.6 513.4,184.4 				"/>
			</g>
		</g>
		<polygon class="st3" points="349.9,236.4 341.7,257.1 347.6,258.3 355.7,237.6 		"/>
		<path class="st3" d="M341.3,234.6l-8.8,13.4l-0.1-2.3c-0.6-2.9-3-7.4-6.2-10.6l1.5,19l6.2,1.3l13.7-19.5L341.3,234.6z"/>
		<path class="st3" d="M332.4,234.4c-0.1-1.4-1-2-2.2-2.3l-9.1-1.9l-0.2,0.4c6.7,3.2,10.5,8.3,11.4,13.6L332.4,234.4z"/>
		<path class="st3" d="M366.7,244.2c1.5,0.3,2.9,0.9,4.2,1.7l0.5,0.4l1.8-4.5c-1.5-1-3.3-1.6-5-2c-5.8-1.2-10.5,0.8-11.3,5
			c-0.7,3.1,1.9,5.4,3.9,6.9c2,1.5,2.7,2.4,2.5,3.3c-0.3,1.4-2.2,1.7-3.9,1.4c-1.9-0.3-3.7-1.1-5.3-2.3l-0.7-0.5l-1.8,4.6
			c1.2,0.9,3.7,1.9,6.3,2.5c6.1,1.3,10.7-0.7,11.7-5.2c0.5-2.4-0.6-4.6-3.7-6.9c-1.8-1.4-2.9-2.3-2.7-3.3
			C363.2,244.5,364.4,243.8,366.7,244.2z"/>
		<path class="st3" d="M388.2,244.5l-4.5-0.9c-1.4-0.3-2.5-0.1-3.4,1.2l-12.8,17.8l6.1,1.3c0,0,1.6-2.4,1.9-3l7.5,1.6
			c0,0.8,0,3.4,0,3.4l5.4,1.1L388.2,244.5z M378.1,256.8c0.7-1.1,3.6-5.5,3.6-5.5s0.7-1.1,1.2-1.9l0,1.9c0,0,0,5.4,0,6.5
			L378.1,256.8z"/>
		<path class="st3" d="M372.5,130.1c-0.7-0.2-1.3-0.4-1.8-0.8c-0.5-0.4-0.9-0.8-1.1-1.3s-0.4-1.1-0.3-1.7l1.7-0.1
			c0,0.4,0.1,0.8,0.2,1.1c0.1,0.3,0.4,0.6,0.7,0.8c0.3,0.2,0.6,0.4,1,0.4c0.6,0.1,1.1,0.1,1.5,0c0.4-0.2,0.7-0.5,0.8-0.9
			c0.1-0.3,0-0.5-0.1-0.7c-0.1-0.2-0.3-0.4-0.7-0.6c-0.3-0.2-0.8-0.4-1.3-0.6c-0.7-0.3-1.2-0.6-1.6-0.9c-0.4-0.3-0.7-0.6-0.9-1
			c-0.2-0.4-0.2-0.9-0.1-1.4c0.1-0.6,0.4-1,0.8-1.4c0.4-0.3,0.9-0.6,1.4-0.7c0.6-0.1,1.2-0.1,1.9,0.1c0.6,0.1,1.2,0.4,1.6,0.7
			c0.4,0.3,0.8,0.7,1,1.2c0.2,0.5,0.4,1,0.4,1.5l-1.6,0.1c0-0.6-0.2-1-0.5-1.4c-0.3-0.4-0.7-0.6-1.2-0.7c-0.5-0.1-1-0.1-1.4,0.1
			c-0.4,0.2-0.6,0.4-0.7,0.8c-0.1,0.2,0,0.5,0.1,0.6c0.1,0.2,0.3,0.4,0.6,0.5c0.3,0.2,0.7,0.4,1.2,0.6c0.7,0.3,1.3,0.6,1.8,0.9
			c0.4,0.3,0.8,0.7,1,1.1s0.2,0.9,0.1,1.5c-0.1,0.6-0.4,1.1-0.8,1.4c-0.4,0.4-0.9,0.6-1.5,0.7C373.8,130.3,373.2,130.3,372.5,130.1
			 M379.8,131.6c0.3,0.1,0.6,0.1,1,0.1l0.3-1.2c-0.2,0-0.4-0.1-0.6-0.1c-0.3-0.1-0.5-0.2-0.6-0.3c-0.1-0.1-0.2-0.3-0.1-0.6l0.8-3.6
			l1.4,0.3l0.3-1.2l-1.4-0.3l0.4-1.7l-1.5-0.3l-0.4,1.7l-1-0.2l-0.3,1.2l1,0.2l-0.8,3.7c-0.1,0.6-0.1,1.1,0.2,1.5
			C378.7,131.2,379.1,131.5,379.8,131.6 M384.5,132.6c0.4,0.1,0.9,0.1,1.3,0c0.4-0.1,0.8-0.3,1.1-0.6l-0.2,0.9l1.5,0.3l1.4-6.6
			l-1.5-0.3l-0.2,0.9c-0.2-0.4-0.5-0.7-0.8-1c-0.3-0.3-0.7-0.5-1.2-0.6c-0.6-0.1-1.2-0.1-1.7,0.1c-0.5,0.2-1,0.5-1.4,1
			c-0.4,0.5-0.6,1.1-0.8,1.8c-0.1,0.7-0.1,1.3,0,1.9c0.1,0.6,0.4,1.1,0.8,1.5C383.4,132.3,383.9,132.5,384.5,132.6 M385.1,131.4
			c-0.4-0.1-0.7-0.2-0.9-0.5c-0.2-0.2-0.4-0.5-0.5-0.9c-0.1-0.4-0.1-0.8,0-1.2c0.1-0.7,0.4-1.2,0.9-1.5c0.4-0.3,0.9-0.4,1.5-0.3
			c0.6,0.1,1,0.4,1.2,0.9c0.2,0.5,0.3,1.1,0.1,1.8c-0.1,0.5-0.3,0.8-0.5,1.1s-0.5,0.5-0.8,0.6C385.8,131.5,385.5,131.5,385.1,131.4
			 M391,133.8l0.7-3.2c0.1-0.6,0.4-1.1,0.8-1.4c0.4-0.3,0.9-0.4,1.4-0.3c0.2,0,0.3,0.1,0.4,0.1l0.3-1.4c-0.1,0-0.1-0.1-0.2-0.1
			c-0.1,0-0.1,0-0.2-0.1c-0.4-0.1-0.8-0.1-1.1,0.1s-0.6,0.4-0.9,0.8l0.2-1.2l-1.5-0.3l-1.4,6.6L391,133.8L391,133.8z M394.1,134.5
			l1.5,0.3l2-9.5l-1.5-0.3L394.1,134.5z M399.2,127.6c0.3,0.1,0.5,0,0.8-0.1c0.2-0.1,0.4-0.4,0.4-0.6s0-0.5-0.1-0.8
			s-0.4-0.4-0.6-0.4c-0.3-0.1-0.5,0-0.8,0.1s-0.4,0.4-0.4,0.6s0,0.5,0.1,0.8C398.7,127.4,398.9,127.6,399.2,127.6 M396.8,135
			l1.5,0.3l1.4-6.6l-1.5-0.3L396.8,135z M401.1,135.9l0.7-3.5c0.1-0.4,0.2-0.8,0.4-1c0.2-0.3,0.4-0.5,0.7-0.6
			c0.3-0.1,0.6-0.1,0.9-0.1c0.4,0.1,0.8,0.3,0.9,0.6c0.2,0.3,0.2,0.7,0.1,1.2l-0.8,4l1.5,0.3l0.9-4.1c0.2-0.9,0.1-1.6-0.2-2.1
			c-0.3-0.6-0.9-0.9-1.6-1.1c-0.5-0.1-0.9-0.1-1.3,0c-0.4,0.1-0.7,0.4-1,0.7l0.2-1l-1.5-0.3l-1.4,6.6L401.1,135.9L401.1,135.9z
			 M409.4,140.5c0.7,0.1,1.3,0.1,1.8,0c0.5-0.1,1-0.4,1.4-0.8c0.4-0.4,0.6-0.9,0.7-1.5l1.3-6.4l-1.5-0.3l-0.2,0.9
			c-0.2-0.4-0.4-0.7-0.8-1s-0.7-0.4-1.2-0.5c-0.6-0.1-1.2-0.1-1.7,0.1c-0.5,0.2-1,0.5-1.3,1c-0.4,0.5-0.6,1-0.8,1.7
			c-0.1,0.7-0.1,1.3,0,1.8c0.1,0.6,0.4,1,0.8,1.4c0.4,0.4,0.9,0.6,1.5,0.8c0.4,0.1,0.9,0.1,1.3,0c0.4-0.1,0.8-0.3,1.1-0.6l-0.2,0.9
			c-0.1,0.4-0.2,0.7-0.4,0.9c-0.2,0.2-0.4,0.4-0.7,0.5c-0.3,0.1-0.6,0.1-1,0c-0.4-0.1-0.8-0.3-1-0.5c-0.3-0.2-0.4-0.6-0.5-0.9
			l-1.5,0.1c0.1,0.7,0.3,1.2,0.8,1.7C408,140,408.7,140.3,409.4,140.5 M410.2,136.4c-0.4-0.1-0.7-0.2-0.9-0.5
			c-0.2-0.2-0.4-0.5-0.5-0.9c-0.1-0.3-0.1-0.7,0-1.2c0.1-0.7,0.4-1.2,0.8-1.5s0.9-0.4,1.5-0.3c0.6,0.1,1,0.4,1.2,0.9
			c0.2,0.5,0.3,1,0.2,1.7c-0.1,0.4-0.2,0.8-0.5,1.1c-0.2,0.3-0.5,0.5-0.8,0.6C410.9,136.5,410.6,136.5,410.2,136.4 M371.5,142
			c0.6,0.1,1.1,0.1,1.5,0c0.5-0.1,0.8-0.4,1.1-0.7c0.3-0.4,0.5-0.8,0.6-1.3c0.1-0.5,0.1-1-0.1-1.5c-0.2-0.5-0.5-0.8-1-1.1
			c0.4-0.1,0.8-0.3,1.1-0.6c0.3-0.3,0.5-0.7,0.6-1.1c0.1-0.4,0.1-0.9-0.1-1.3c-0.1-0.4-0.4-0.8-0.7-1.1c-0.4-0.3-0.8-0.5-1.4-0.6
			l-4.4-0.9l-1.9,9.2L371.5,142L371.5,142z M369.5,136l0.5-2.6l2.6,0.5c0.4,0.1,0.8,0.3,1,0.6c0.2,0.3,0.3,0.6,0.2,1
			s-0.3,0.7-0.6,0.9c-0.3,0.2-0.7,0.2-1.1,0.2L369.5,136z M368.6,140l0.6-2.9l2.8,0.6c0.5,0.1,0.8,0.3,1,0.6
			c0.2,0.3,0.3,0.7,0.2,1.1c-0.1,0.4-0.3,0.8-0.6,0.9c-0.3,0.2-0.7,0.2-1.2,0.1L368.6,140L368.6,140z M378,143.6
			c0.4,0.1,0.9,0.1,1.3,0c0.4-0.1,0.8-0.3,1.1-0.6l-0.2,0.9l1.5,0.3l1.4-6.6l-1.5-0.3l-0.2,0.9c-0.2-0.4-0.5-0.7-0.8-1
			s-0.7-0.5-1.2-0.6c-0.6-0.1-1.2-0.1-1.7,0.1c-0.5,0.2-1,0.5-1.4,1c-0.4,0.5-0.6,1.1-0.8,1.8c-0.1,0.7-0.1,1.3,0,1.9
			c0.1,0.6,0.4,1.1,0.8,1.5C376.8,143.2,377.4,143.4,378,143.6 M378.6,142.3c-0.4-0.1-0.7-0.2-0.9-0.5c-0.2-0.2-0.4-0.5-0.5-0.9
			s-0.1-0.8,0-1.2c0.1-0.7,0.4-1.2,0.9-1.5c0.4-0.3,0.9-0.4,1.5-0.3c0.6,0.1,1,0.4,1.2,0.9c0.2,0.5,0.3,1.1,0.1,1.8
			c-0.1,0.5-0.3,0.8-0.5,1.1c-0.2,0.3-0.5,0.5-0.8,0.6C379.3,142.4,378.9,142.4,378.6,142.3 M384.4,144.7l0.7-3.5
			c0.1-0.4,0.2-0.8,0.4-1c0.2-0.3,0.4-0.5,0.7-0.6c0.3-0.1,0.6-0.1,0.9-0.1c0.4,0.1,0.8,0.3,0.9,0.6c0.2,0.3,0.2,0.7,0.1,1.2l-0.8,4
			l1.5,0.3l0.9-4.1c0.2-0.9,0.1-1.6-0.2-2.1c-0.3-0.6-0.9-0.9-1.6-1.1c-0.5-0.1-0.9-0.1-1.3,0c-0.4,0.1-0.7,0.4-1,0.7l0.2-1
			l-1.5-0.3l-1.4,6.6L384.4,144.7L384.4,144.7z M391.7,146.2l0.5-2.2l0.8-0.5l1.5,3.3l1.8,0.4l-2.1-4.5l3.4-2.2l-1.9-0.4l-3.1,2
			l1.1-5.4l-1.5-0.3l-2,9.5L391.7,146.2z"/>
		<path class="st3" d="M355.5,116.4c-5.9-1.2-11.6,2.5-12.9,8.4c-1.2,5.9,2.5,11.6,8.4,12.9c5.9,1.2,11.6-2.5,12.8-8.4
			C365.2,123.4,361.4,117.7,355.5,116.4z M349.2,125.6c0.8-3.7,4.4-6,8-5.3l0.6,0.1l-0.5,2.4l-0.6-0.1c-2.3-0.5-4.6,1-5.1,3.3
			l-0.1,0.6l-2.4-0.5L349.2,125.6z M357.4,128.5c-0.8,3.7-4.4,6-8,5.3l-0.6-0.1l0.5-2.4l0.6,0.1c2.3,0.5,4.6-1,5.1-3.4l0.1-0.6
			l2.4,0.5L357.4,128.5z"/>
		<path class="st13" d="M357.5,128l-0.1,0.6c-0.8,3.7-4.4,6-8,5.3l-0.6-0.1l0.5-2.4l0.6,0.1c2.3,0.5,4.6-1,5.1-3.4l0.1-0.6
			L357.5,128z"/>
		<path class="st13" d="M357.8,120.5l-0.5,2.4l-0.6-0.1c-2.3-0.5-4.6,1-5.1,3.3l-0.1,0.6l-2.4-0.5l0.1-0.6c0.8-3.7,4.4-6,8-5.3
			L357.8,120.5z"/>
	</g>
	<path class="st4" d="M211.1,156.6l-29.3-6.1c-2.2-0.5-4.4,1-4.9,3.2l-4.4,21.1c-0.5,2.2,1,4.4,3.2,4.9l29.3,6.1
		c2.2,0.5,4.4-1,4.9-3.2l4.4-21.1C214.8,159.2,213.3,157,211.1,156.6z M208.8,170.7l-8.9-1.8l0.9-4.1c0.1-0.3,0.4-0.6,0.8-0.5
		l8.2,1.7L208.8,170.7z M199.7,170l8.9,1.8l-1,4.8l-8.9-1.8L199.7,170z M210.2,169.1l1.2,0.3l-1,4.8l-1.2-0.3L210.2,169.1z
		 M210.5,168l1-4.8l1.2,0.3l-1,4.8L210.5,168z M210,164.9l-8.2-1.7c-0.9-0.2-1.9,0.4-2.1,1.4l-3.3,15.9l-10.6-2.2l4.7-22.3l20,4.2
		c0.3,0.1,0.6,0.4,0.5,0.8L210,164.9z M187.1,166.2l-8.9-1.8l1-4.8l8.9,1.8L187.1,166.2z M176.5,167.1l-1.2-0.3l1-4.8l1.2,0.3
		L176.5,167.1z M178,165.5l8.9,1.8l-1,4.8l-8.9-1.8L178,165.5z M196.5,156l0.3-1.2l10,2.1l-0.3,1.2L196.5,156z M195.4,155.7l-10-2.1
		l0.3-1.2l10,2.1L195.4,155.7z M189.3,155.6l-1,4.8l-8.9-1.8l0.9-4.1c0.1-0.3,0.4-0.6,0.8-0.5L189.3,155.6z M177.7,161.2l-1.2-0.3
		l1-4.8l1.2,0.3L177.7,161.2z M175,167.9l1.2,0.3l-1,4.8l-1.2-0.3L175,167.9z M176.8,171.3l8.9,1.8l-1,4.8l-8.2-1.7
		c-0.3-0.1-0.6-0.4-0.5-0.8L176.8,171.3z M190.3,180.3l-0.3,1.2l-10-2.1l0.3-1.2L190.3,180.3z M191.4,180.5l10,2.1l-0.3,1.2l-10-2.1
		L191.4,180.5z M197.5,180.6l1-4.8l8.9,1.8l-0.9,4.1c-0.1,0.3-0.4,0.6-0.8,0.5L197.5,180.6z M209,175l1.2,0.3l-1,4.8l-1.2-0.3
		L209,175z M213.2,161.2l-0.3,1.2l-1.2-0.3l0.3-1.2c0.2-0.9-0.4-1.9-1.4-2.1l-3-0.6l0.3-1.2l3,0.6
		C212.5,158,213.5,159.6,213.2,161.2z M181.5,151.5l3,0.6l-0.3,1.2l-3-0.6c-0.9-0.2-1.9,0.4-2.1,1.4l-0.3,1.2l-1.2-0.3l0.3-1.2
		C178.3,152.3,179.9,151.2,181.5,151.5z M173.6,175l0.3-1.2l1.2,0.3l-0.3,1.2c-0.2,0.9,0.4,1.9,1.4,2.1l3,0.6l-0.3,1.2l-3-0.6
		C174.3,178.2,173.2,176.6,173.6,175z M205.2,184.7l-3-0.6l0.3-1.2l3,0.6c0.9,0.2,1.9-0.4,2.1-1.4l0.3-1.2l1.2,0.3l-0.3,1.2
		C208.4,184,206.8,185,205.2,184.7z"/>
</g>
</svg>
