<?xml version="1.0" encoding="utf-8"?>
<!-- Generator: Adobe Illustrator 26.0.2, SVG Export Plug-In . SVG Version: 6.00 Build 0)  -->
<svg version="1.1" id="Capa_1" xmlns="http://www.w3.org/2000/svg" xmlns:xlink="http://www.w3.org/1999/xlink" x="0px" y="0px"
	 viewBox="0 0 548.6 500.3" style="enable-background:new 0 0 548.6 500.3;" xml:space="preserve">
<style type="text/css">
	.st0{fill:url(#SVGID_1_);}
	.st1{clip-path:url(#SVGID_00000027602330460362719610000016772942651685478547_);}
	.st2{fill:#D32626;}
	.st3{fill:#FFFFFF;}
	.st4{fill:url(#SVGID_00000048474999218950679850000004189340485232451506_);}
	.st5{clip-path:url(#SVGID_00000066516038523365367040000015589339598727087292_);}
	.st6{fill:none;stroke:#3636AD;stroke-width:14;stroke-miterlimit:10;}
	.st7{fill:#ED1C24;}
	.st8{fill:#F15A24;}
	.st9{fill:url(#SVGID_00000088101326450201707740000015614451566634417048_);}
	.st10{clip-path:url(#SVGID_00000101092773123876126070000000197768765422735791_);}
	.st11{fill:#2D185C;}
	.st12{fill:none;}
	.st13{opacity:0.4;fill:#FFFFFF;}
</style>
<g>
	
		<linearGradient id="SVGID_1_" gradientUnits="userSpaceOnUse" x1="233.0312" y1="-183.6402" x2="525.3998" y2="-59.5379" gradientTransform="matrix(0.7737 -0.6335 -0.6335 -0.7737 11.3533 482.1634)">
		<stop  offset="0" style="stop-color:#FF325D"/>
		<stop  offset="1" style="stop-color:#2D185C"/>
	</linearGradient>
	<path class="st0" d="M233,347.8l189.5-155.2c8.7-7.1,21.2-6.1,28.1,2.2l83.3,101.7c6.8,8.3,5.3,20.8-3.4,27.9L340.9,479.7
		c-8.7,7.1-21.2,6.1-28.1-2.2l-83.3-101.7C222.8,367.4,224.3,354.9,233,347.8z"/>
	<g>
		<defs>
			<path id="SVGID_00000120522941727871925780000008900598416984636606_" d="M233,347.8l189.5-155.2c8.7-7.1,21.2-6.1,28.1,2.2
				l83.3,101.7c6.8,8.3,5.3,20.8-3.4,27.9L340.9,479.7c-8.7,7.1-21.2,6.1-28.1-2.2l-83.3-101.7C222.8,367.4,224.3,354.9,233,347.8z"
				/>
		</defs>
		<clipPath id="SVGID_00000087377055532414690110000018134095449675285907_">
			<use xlink:href="#SVGID_00000120522941727871925780000008900598416984636606_"  style="overflow:visible;"/>
		</clipPath>
		<g style="clip-path:url(#SVGID_00000087377055532414690110000018134095449675285907_);">
			
				<ellipse transform="matrix(0.7737 -0.6335 0.6335 0.7737 -115.763 244.2578)" class="st2" cx="284" cy="284.2" rx="6.7" ry="6.4"/>
			
				<ellipse transform="matrix(0.7737 -0.6335 0.6335 0.7737 -117.4822 257.9952)" class="st2" cx="302.4" cy="293.5" rx="6.7" ry="6.4"/>
			
				<ellipse transform="matrix(0.7737 -0.6335 0.6335 0.7737 -119.2013 271.7313)" class="st2" cx="320.8" cy="302.7" rx="6.7" ry="6.4"/>
			
				<ellipse transform="matrix(0.7737 -0.6335 0.6335 0.7737 -120.9204 285.4675)" class="st2" cx="339.1" cy="312" rx="6.7" ry="6.4"/>
			
				<ellipse transform="matrix(0.7737 -0.6335 0.6335 0.7737 -122.6396 299.2036)" class="st2" cx="357.5" cy="321.3" rx="6.7" ry="6.4"/>
			
				<ellipse transform="matrix(0.7737 -0.6335 0.6335 0.7737 -124.3587 312.9398)" class="st2" cx="375.9" cy="330.6" rx="6.7" ry="6.4"/>
			
				<ellipse transform="matrix(0.7737 -0.6335 0.6335 0.7737 -126.0789 326.6718)" class="st2" cx="394.2" cy="339.8" rx="6.7" ry="6.4"/>
			
				<ellipse transform="matrix(0.7737 -0.6335 0.6335 0.7737 -127.798 340.408)" class="st2" cx="412.6" cy="349.1" rx="6.7" ry="6.4"/>
			
				<ellipse transform="matrix(0.7737 -0.6335 0.6335 0.7737 -129.5172 354.1441)" class="st2" cx="431" cy="358.4" rx="6.7" ry="6.4"/>
			
				<ellipse transform="matrix(0.7737 -0.6335 0.6335 0.7737 -131.2363 367.8803)" class="st2" cx="449.4" cy="367.6" rx="6.7" ry="6.4"/>
			
				<ellipse transform="matrix(0.7737 -0.6335 0.6335 0.7737 -132.9554 381.6164)" class="st2" cx="467.7" cy="376.9" rx="6.7" ry="6.4"/>
			
				<ellipse transform="matrix(0.7737 -0.6335 0.6335 0.7737 -134.6745 395.3526)" class="st2" cx="486.1" cy="386.2" rx="6.7" ry="6.4"/>
			
				<ellipse transform="matrix(0.7737 -0.6335 0.6335 0.7737 -136.3936 409.0887)" class="st2" cx="504.5" cy="395.5" rx="6.7" ry="6.4"/>
			
				<ellipse transform="matrix(0.7737 -0.6335 0.6335 0.7737 -138.1126 422.8289)" class="st2" cx="522.8" cy="404.7" rx="6.7" ry="6.4"/>
			
				<ellipse transform="matrix(0.7737 -0.6335 0.6335 0.7737 -98.4838 256.7503)" class="st2" cx="310.2" cy="266.2" rx="6" ry="5.8"/>
			
				<ellipse transform="matrix(0.7737 -0.6335 0.6335 0.7737 -100.032 269.1205)" class="st2" cx="326.7" cy="274.6" rx="6" ry="5.8"/>
			
				<ellipse transform="matrix(0.7737 -0.6335 0.6335 0.7737 -101.5802 281.4908)" class="st2" cx="343.2" cy="282.9" rx="6" ry="5.8"/>
			
				<ellipse transform="matrix(0.7737 -0.6335 0.6335 0.7737 -103.1284 293.861)" class="st2" cx="359.8" cy="291.3" rx="6" ry="5.8"/>
			
				<ellipse transform="matrix(0.7737 -0.6335 0.6335 0.7737 -104.6782 306.2338)" class="st2" cx="376.3" cy="299.6" rx="6" ry="5.8"/>
			<ellipse transform="matrix(0.7737 -0.6335 0.6335 0.7737 -106.2264 318.604)" class="st2" cx="392.9" cy="308" rx="6" ry="5.8"/>
			
				<ellipse transform="matrix(0.7737 -0.6335 0.6335 0.7737 -107.7746 330.9743)" class="st2" cx="409.4" cy="316.4" rx="6" ry="5.8"/>
			
				<ellipse transform="matrix(0.7737 -0.6335 0.6335 0.7737 -109.3228 343.3445)" class="st2" cx="426" cy="324.7" rx="6" ry="5.8"/>
			
				<ellipse transform="matrix(0.7737 -0.6335 0.6335 0.7737 -110.8711 355.7148)" class="st2" cx="442.5" cy="333.1" rx="6" ry="5.8"/>
			<ellipse transform="matrix(0.7737 -0.6335 0.6335 0.7737 -112.4193 368.085)" class="st2" cx="459" cy="341.4" rx="6" ry="5.8"/>
			
				<ellipse transform="matrix(0.7737 -0.6335 0.6335 0.7737 -113.9675 380.4552)" class="st2" cx="475.6" cy="349.8" rx="6" ry="5.8"/>
			
				<ellipse transform="matrix(0.7737 -0.6335 0.6335 0.7737 -115.5155 392.8296)" class="st2" cx="492.1" cy="358.1" rx="6" ry="5.8"/>
			
				<ellipse transform="matrix(0.7737 -0.6335 0.6335 0.7737 -117.0639 405.1957)" class="st2" cx="508.7" cy="366.5" rx="6" ry="5.8"/>
			
				<ellipse transform="matrix(0.7737 -0.6335 0.6335 0.7737 -118.6122 417.5659)" class="st2" cx="525.2" cy="374.8" rx="6" ry="5.8"/>
			
				<ellipse transform="matrix(0.7737 -0.6335 0.6335 0.7737 -82.1857 265.9562)" class="st2" cx="331.2" cy="248" rx="5.5" ry="5.3"/>
			
				<ellipse transform="matrix(0.7737 -0.6335 0.6335 0.7737 -83.6155 277.3723)" class="st2" cx="346.5" cy="255.7" rx="5.5" ry="5.3"/>
			
				<ellipse transform="matrix(0.7737 -0.6335 0.6335 0.7737 -85.0412 288.7875)" class="st2" cx="361.7" cy="263.4" rx="5.5" ry="5.3"/>
			
				<ellipse transform="matrix(0.7737 -0.6335 0.6335 0.7737 -86.4695 300.2011)" class="st2" cx="377" cy="271.1" rx="5.5" ry="5.3"/>
			
				<ellipse transform="matrix(0.7737 -0.6335 0.6335 0.7737 -87.8993 311.6173)" class="st2" cx="392.3" cy="278.9" rx="5.5" ry="5.3"/>
			
				<ellipse transform="matrix(0.7737 -0.6335 0.6335 0.7737 -89.3276 323.0309)" class="st2" cx="407.5" cy="286.6" rx="5.5" ry="5.3"/>
			
				<ellipse transform="matrix(0.7737 -0.6335 0.6335 0.7737 -90.7559 334.4445)" class="st2" cx="422.8" cy="294.3" rx="5.5" ry="5.3"/>
			
				<ellipse transform="matrix(0.7737 -0.6335 0.6335 0.7737 -92.1857 345.8606)" class="st2" cx="438.1" cy="302" rx="5.5" ry="5.3"/>
			
				<ellipse transform="matrix(0.7737 -0.6335 0.6335 0.7737 -93.6143 357.2701)" class="st2" cx="453.3" cy="309.7" rx="5.5" ry="5.3"/>
			
				<ellipse transform="matrix(0.7737 -0.6335 0.6335 0.7737 -95.0423 368.6878)" class="st2" cx="468.6" cy="317.4" rx="5.5" ry="5.3"/>
			
				<ellipse transform="matrix(0.7737 -0.6335 0.6335 0.7737 -96.4721 380.1039)" class="st2" cx="483.8" cy="325.1" rx="5.5" ry="5.3"/>
			
				<ellipse transform="matrix(0.7737 -0.6335 0.6335 0.7737 -97.9004 391.5175)" class="st2" cx="499.1" cy="332.8" rx="5.5" ry="5.3"/>
			
				<ellipse transform="matrix(0.7737 -0.6335 0.6335 0.7737 -99.3287 402.9311)" class="st2" cx="514.4" cy="340.5" rx="5.5" ry="5.3"/>
			
				<ellipse transform="matrix(0.7737 -0.6335 0.6335 0.7737 -100.7585 414.3472)" class="st2" cx="529.6" cy="348.2" rx="5.5" ry="5.3"/>
			
				<ellipse transform="matrix(0.7737 -0.6335 0.6335 0.7737 -63.8586 275.6)" class="st2" cx="353.9" cy="227.2" rx="5.1" ry="4.9"/>
			<ellipse transform="matrix(0.7737 -0.6335 0.6335 0.7737 -65.1819 286.19)" class="st2" cx="368" cy="234.3" rx="5.1" ry="4.9"/>
			
				<ellipse transform="matrix(0.7737 -0.6335 0.6335 0.7737 -66.5079 296.7784)" class="st2" cx="382.2" cy="241.5" rx="5.1" ry="4.9"/>
			
				<ellipse transform="matrix(0.7737 -0.6335 0.6335 0.7737 -67.8327 307.3709)" class="st2" cx="396.4" cy="248.6" rx="5.1" ry="4.9"/>
			
				<ellipse transform="matrix(0.7737 -0.6336 0.6336 0.7737 -69.1582 317.9631)" class="st2" cx="410.5" cy="255.8" rx="5.1" ry="4.9"/>
			
				<ellipse transform="matrix(0.7737 -0.6335 0.6335 0.7737 -70.4862 328.5502)" class="st2" cx="424.7" cy="262.9" rx="5.1" ry="4.9"/>
			
				<ellipse transform="matrix(0.7737 -0.6335 0.6335 0.7737 -71.8095 339.1401)" class="st2" cx="438.8" cy="270.1" rx="5.1" ry="4.9"/>
			
				<ellipse transform="matrix(0.7737 -0.6335 0.6335 0.7737 -73.1369 349.7311)" class="st2" cx="453" cy="277.2" rx="5.1" ry="4.9"/>
			
				<ellipse transform="matrix(0.7737 -0.6335 0.6335 0.7737 -74.4603 360.321)" class="st2" cx="467.2" cy="284.4" rx="5.1" ry="4.9"/>
			
				<ellipse transform="matrix(0.7737 -0.6335 0.6335 0.7737 -75.7862 370.9094)" class="st2" cx="481.3" cy="291.5" rx="5.1" ry="4.9"/>
			
				<ellipse transform="matrix(0.7737 -0.6335 0.6335 0.7737 -77.111 381.5019)" class="st2" cx="495.5" cy="298.7" rx="5.1" ry="4.9"/>
			
				<ellipse transform="matrix(0.7737 -0.6335 0.6335 0.7737 -78.437 392.0903)" class="st2" cx="509.6" cy="305.8" rx="5.1" ry="4.9"/>
			
				<ellipse transform="matrix(0.7737 -0.6335 0.6335 0.7737 -79.7645 402.6812)" class="st2" cx="523.8" cy="313" rx="5.1" ry="4.9"/>
			
				<ellipse transform="matrix(0.7737 -0.6335 0.6335 0.7737 -81.0878 413.2712)" class="st2" cx="538" cy="320.1" rx="5.1" ry="4.9"/>
			
				<ellipse transform="matrix(0.7737 -0.6335 0.6335 0.7737 -44.8204 283.6833)" class="st2" cx="374.7" cy="204.6" rx="4.8" ry="4.6"/>
			
				<ellipse transform="matrix(0.7737 -0.6335 0.6335 0.7737 -46.05 293.4983)" class="st2" cx="387.8" cy="211.2" rx="4.8" ry="4.6"/>
			
				<ellipse transform="matrix(0.7737 -0.6335 0.6335 0.7737 -47.2784 303.3175)" class="st2" cx="401" cy="217.8" rx="4.8" ry="4.6"/>
			
				<ellipse transform="matrix(0.7737 -0.6335 0.6335 0.7737 -48.5053 313.1341)" class="st2" cx="414.1" cy="224.5" rx="4.8" ry="4.6"/>
			
				<ellipse transform="matrix(0.7737 -0.6335 0.6335 0.7737 -49.7348 322.9492)" class="st2" cx="427.2" cy="231.1" rx="4.8" ry="4.6"/>
			
				<ellipse transform="matrix(0.7737 -0.6335 0.6335 0.7737 -50.9632 332.7683)" class="st2" cx="440.3" cy="237.7" rx="4.8" ry="4.6"/>
			
				<ellipse transform="matrix(0.7737 -0.6335 0.6335 0.7737 -52.1927 342.5833)" class="st2" cx="453.5" cy="244.4" rx="4.8" ry="4.6"/>
			
				<ellipse transform="matrix(0.7737 -0.6335 0.6335 0.7737 -53.4211 352.4025)" class="st2" cx="466.6" cy="251" rx="4.8" ry="4.6"/>
			
				<ellipse transform="matrix(0.7737 -0.6335 0.6335 0.7737 -54.6507 362.2176)" class="st2" cx="479.7" cy="257.6" rx="4.8" ry="4.6"/>
			
				<ellipse transform="matrix(0.7737 -0.6335 0.6335 0.7737 -55.8791 372.0367)" class="st2" cx="492.8" cy="264.2" rx="4.8" ry="4.6"/>
			
				<ellipse transform="matrix(0.7737 -0.6335 0.6335 0.7737 -57.1086 381.8518)" class="st2" cx="506" cy="270.9" rx="4.8" ry="4.6"/>
			
				<ellipse transform="matrix(0.7737 -0.6335 0.6335 0.7737 -58.3355 391.6684)" class="st2" cx="519.1" cy="277.5" rx="4.8" ry="4.6"/>
			
				<ellipse transform="matrix(0.7737 -0.6335 0.6335 0.7737 -59.5639 401.4876)" class="st2" cx="532.2" cy="284.1" rx="4.8" ry="4.6"/>
			
				<ellipse transform="matrix(0.7737 -0.6335 0.6335 0.7737 -60.7934 411.3026)" class="st2" cx="545.4" cy="290.8" rx="4.8" ry="4.6"/>
			
				<ellipse transform="matrix(0.7737 -0.6335 0.6335 0.7737 -26.2854 293.8228)" class="st2" cx="398.2" cy="183.7" rx="4.3" ry="4.1"/>
			
				<ellipse transform="matrix(0.7737 -0.6335 0.6335 0.7737 -27.3926 302.6653)" class="st2" cx="410" cy="189.7" rx="4.3" ry="4.1"/>
			
				<ellipse transform="matrix(0.7737 -0.6335 0.6335 0.7737 -28.4988 311.5119)" class="st2" cx="421.8" cy="195.6" rx="4.3" ry="4.1"/>
			
				<ellipse transform="matrix(0.7737 -0.6335 0.6335 0.7737 -29.6075 320.3569)" class="st2" cx="433.6" cy="201.6" rx="4.3" ry="4.1"/>
			
				<ellipse transform="matrix(0.7737 -0.6335 0.6335 0.7737 -30.7121 329.201)" class="st2" cx="445.5" cy="207.6" rx="4.3" ry="4.1"/>
			
				<ellipse transform="matrix(0.7737 -0.6335 0.6335 0.7737 -31.8209 338.046)" class="st2" cx="457.3" cy="213.6" rx="4.3" ry="4.1"/>
			
				<ellipse transform="matrix(0.7737 -0.6335 0.6335 0.7737 -32.9297 346.8911)" class="st2" cx="469.1" cy="219.5" rx="4.3" ry="4.1"/>
			
				<ellipse transform="matrix(0.7737 -0.6335 0.6335 0.7737 -34.0343 355.7351)" class="st2" cx="481" cy="225.5" rx="4.3" ry="4.1"/>
			
				<ellipse transform="matrix(0.7737 -0.6335 0.6335 0.7737 -35.1431 364.5801)" class="st2" cx="492.8" cy="231.5" rx="4.3" ry="4.1"/>
			
				<ellipse transform="matrix(0.7737 -0.6335 0.6335 0.7737 -36.2477 373.4242)" class="st2" cx="504.6" cy="237.5" rx="4.3" ry="4.1"/>
			
				<ellipse transform="matrix(0.7737 -0.6335 0.6335 0.7737 -37.3565 382.2692)" class="st2" cx="516.4" cy="243.4" rx="4.3" ry="4.1"/>
			
				<ellipse transform="matrix(0.7737 -0.6335 0.6335 0.7737 -38.4626 391.1158)" class="st2" cx="528.3" cy="249.4" rx="4.3" ry="4.1"/>
			
				<ellipse transform="matrix(0.7737 -0.6335 0.6335 0.7737 -132.6341 237.1955)" class="st2" cx="265.7" cy="304.3" rx="8.5" ry="8.1"/>
			
				<ellipse transform="matrix(0.7737 -0.6335 0.6335 0.7737 -134.8224 254.6746)" class="st2" cx="289.1" cy="316.1" rx="8.5" ry="8.1"/>
			
				<ellipse transform="matrix(0.7737 -0.6335 0.6335 0.7737 -137.0091 272.1511)" class="st2" cx="312.5" cy="327.9" rx="8.5" ry="8.1"/>
			
				<ellipse transform="matrix(0.7737 -0.6335 0.6335 0.7737 -139.1958 289.6276)" class="st2" cx="335.8" cy="339.7" rx="8.5" ry="8.1"/>
			
				<ellipse transform="matrix(0.7737 -0.6335 0.6335 0.7737 -141.3826 307.1041)" class="st2" cx="359.2" cy="351.5" rx="8.5" ry="8.1"/>
			
				<ellipse transform="matrix(0.7737 -0.6335 0.6335 0.7737 -143.5735 324.5815)" class="st2" cx="382.6" cy="363.3" rx="8.5" ry="8.1"/>
			
				<ellipse transform="matrix(0.7737 -0.6335 0.6335 0.7737 -145.7602 342.058)" class="st2" cx="405.9" cy="375.1" rx="8.5" ry="8.1"/>
			
				<ellipse transform="matrix(0.7737 -0.6335 0.6335 0.7737 -147.947 359.5345)" class="st2" cx="429.3" cy="386.9" rx="8.5" ry="8.1"/>
			
				<ellipse transform="matrix(0.7737 -0.6335 0.6335 0.7737 -150.1352 377.0136)" class="st2" cx="452.7" cy="398.7" rx="8.5" ry="8.1"/>
			
				<ellipse transform="matrix(0.7737 -0.6335 0.6335 0.7737 -152.322 394.4901)" class="st2" cx="476.1" cy="410.5" rx="8.5" ry="8.1"/>
			
				<ellipse transform="matrix(0.7737 -0.6335 0.6335 0.7737 -154.5087 411.9666)" class="st2" cx="499.4" cy="422.3" rx="8.5" ry="8.1"/>
			
				<ellipse transform="matrix(0.7737 -0.6335 0.6335 0.7737 -156.6954 429.4431)" class="st2" cx="522.8" cy="434.1" rx="8.5" ry="8.1"/>
		</g>
	</g>
	<polygon class="st3" points="465.1,321.1 475.6,339.8 480.2,336 469.8,317.3 	"/>
	<path class="st3" d="M458.3,326.7l4.6,14.9l-1.9-1.3c-2.6-1.3-7.5-2.1-12-1.5l15.3,10.2l4.9-4l-6-22.3L458.3,326.7z"/>
	<path class="st3" d="M452.5,333.5c-1.1-0.8-2.1-0.4-3.1,0.3l-7.2,5.9l0.2,0.4c6.7-3.3,12.9-3.2,17.6-0.7L452.5,333.5z"/>
	<path class="st3" d="M481.7,312.8c1.2-1,2.5-1.8,4-2.2l0.6-0.2l-2.3-4.1c-1.7,0.6-3.3,1.6-4.7,2.7c-4.6,3.8-6,8.6-3.4,11.8
		c1.9,2.4,5.3,1.8,7.7,1.1c2.4-0.7,3.5-0.7,4.1,0.1c0.9,1.1-0.1,2.8-1.5,3.9c-1.5,1.3-3.2,2.2-5.1,2.7l-0.8,0.2l2.3,4.2
		c1.5-0.4,3.8-1.7,5.9-3.4c4.9-4,6.3-8.8,3.5-12.2c-1.5-1.9-3.9-2.3-7.5-1.2c-2.2,0.6-3.7,0.9-4.3,0.1
		C479.7,315.7,479.9,314.2,481.7,312.8z"/>
	<path class="st3" d="M495.6,296.2l-3.6,2.9c-1.1,0.9-1.7,1.9-1.3,3.4l5.4,20.6l4.9-4c0,0-0.9-2.7-1-3.3l6-4.9c0.6,0.5,2.6,2,2.6,2
		l4.3-3.5L495.6,296.2z M498.5,311.4c-0.4-1.3-1.9-6.1-1.9-6.1s-0.4-1.3-0.7-2.1l1.5,1.2c0,0,4.1,3.2,4.9,3.8L498.5,311.4z"/>
	<path class="st3" d="M391.2,241.9l1.6,9.7l-5.6-2.1l-0.6-3.8l-3.5-1.3l-1-5.9L391.2,241.9z"/>
	<path class="st3" d="M400.8,236l-0.3-1.7l-1.7-0.6c-1-0.4-2.3-0.4-3.7,0.8l-2.9,2.4l3.6,1.3l0.6,3.8l2.8-2.4
		C400.7,238.3,401,237.1,400.8,236"/>
	<path class="st3" d="M409.6,234l-10.9-6.1l1.4-1.2l8,4.6l-3-8.6l1.4-1.2l3.9,11.9L409.6,234L409.6,234z M414.5,222.9
		c-0.7-0.9-2.2-1.3-4,0.1c-0.9,0.8-1.4,1.8-1.5,2.9l1.5,0c-0.1-0.7,0.2-1.5,0.8-1.9c1-0.8,1.6-0.5,1.9-0.1l0.4,0.5l-1.7,1.4
		c-1.2,1-1.7,2.5-0.6,4c0.9,1.1,2.2,1.3,3.8,0c0.7-0.5,1.1-1.2,1.1-2.2l0.4,0.5l1.3-1L414.5,222.9z M415.2,226.4
		c0.3,0.4,0.5,1.4-0.7,2.3c-0.6,0.5-1.4,0.7-1.8,0.2c-0.6-0.7-0.5-1.6,0.2-2.2l1.5-1.3L415.2,226.4z M412.7,216.1l-1.3,1.1l7.6,9.2
		l1.3-1L412.7,216.1L412.7,216.1z M415.1,214.1l-1.3,1l7.6,9.3l1.3-1.1L415.1,214.1z M427.1,214.8c-0.2-0.2-0.4-0.4-0.5-0.5
		c-1.5-1.3-3.7-1.4-5.2-0.2c-1.7,1.4-1.8,3.9-0.4,5.7c1.5,1.8,4.1,2,5.8,0.6c0.9-0.8,1.4-1.8,1.5-2.9l-1.5-0.1
		c0.1,0.8-0.2,1.5-0.8,2c-0.9,0.8-2.3,0.6-3.3-0.2l4.8-3.9L427.1,214.8z M421.9,218c-0.6-1.1-0.5-2.3,0.3-3c0.8-0.7,2-0.6,3,0.2
		L421.9,218z M432.7,215.1c-0.9-3.2-2.3-8-2.3-8l-1.3,1l1.6,5.3l-4.9-2.6l-1.3,1.1l6.7,3.4c0.4,1.3,1.5,3.8,0.3,4.3
		c-0.2,0.1-0.5,0.2-0.6,0.1l0.5,1.4c0.1-0.1,0.5-0.1,0.6-0.1c0.3-0.1,0.6-0.2,0.8-0.4C433.9,219.7,433.5,217.8,432.7,215.1
		L432.7,215.1z M392.3,236.7l2.9-2.4c1.4-1.1,2.6-1.1,3.7-0.8c0.1,0,0.1,0,0.1,0l-5.6-2.1c-1.3-0.5-2.5-0.3-3.8,0.8l-5.9,4.8l5.6,2
		L392.3,236.7z M399.3,239.4l-2.8,2.4l-3,2.4l0.9,5.9l5.9-4.8c1.3-1.1,1.7-2.2,1.5-3.6l-1-5.9l0,0.1
		C401,237.1,400.7,238.3,399.3,239.4"/>
</g>
<g>
	<g>
		
			<linearGradient id="SVGID_00000172438931081760614230000011336654045174344849_" gradientUnits="userSpaceOnUse" x1="8.1192" y1="-68.9476" x2="291.9905" y2="51.5477" gradientTransform="matrix(0.7732 -0.6342 -0.6342 -0.7732 40.2745 418.6649)">
			<stop  offset="0" style="stop-color:#070793"/>
			<stop  offset="1.000000e-02" style="stop-color:#090793"/>
			<stop  offset="0.28" style="stop-color:#29078A"/>
			<stop  offset="0.54" style="stop-color:#400884"/>
			<stop  offset="0.79" style="stop-color:#4E0880"/>
			<stop  offset="1" style="stop-color:#53087F"/>
		</linearGradient>
		<path style="fill:url(#SVGID_00000172438931081760614230000011336654045174344849_);" d="M16.3,339.6l182.9-150
			c8.3-6.8,20.6-5.6,27.5,2.7l83.1,101.3c6.8,8.3,5.6,20.6-2.7,27.5l-182.9,150c-8.3,6.8-20.6,5.6-27.5-2.7L13.6,367.1
			C6.8,358.8,8,346.5,16.3,339.6z"/>
		<g>
			<defs>
				<path id="SVGID_00000106851926503131946650000013468971572687333764_" d="M16.3,339.6l182.9-150c8.3-6.8,20.6-5.6,27.5,2.7
					l83.1,101.3c6.8,8.3,5.6,20.6-2.7,27.5l-182.9,150c-8.3,6.8-20.6,5.6-27.5-2.7L13.6,367.1C6.8,358.8,8,346.5,16.3,339.6z"/>
			</defs>
			<clipPath id="SVGID_00000095299337451177419210000002991922000182781630_">
				<use xlink:href="#SVGID_00000106851926503131946650000013468971572687333764_"  style="overflow:visible;"/>
			</clipPath>
			<g style="clip-path:url(#SVGID_00000095299337451177419210000002991922000182781630_);">
				<path class="st6" d="M-24.4,494.3c1,9.2,0.9,22.6,12.3,23.7c7.8,0.8,17-1.3,24.9-2.2c11.7-1.3,32.8-8.8,43.1-1.6
					s11,16.4,25.9,14.5c14.2-1.8,28.3-4.6,42.5-6.6c19.4-2.7,35.1-9.1,52.8-17.8c9.4-4.6,18.9-9.6,28.8-12.8
					c10-3.3,19.1-3.6,28.9-8.5c11.5-5.8,22.3-13,33.5-19.3c9.4-5.3,19.5-11.6,30.6-10.8c15.6,1.1,31.5,5.2,46.7,8.5"/>
				<path class="st6" d="M2.8,397.9c9.5,12.3,3.9,47,23.7,46c15.7-0.8,31.5-4.6,47.2-6.1c5.8-0.6,12.4-2,17.6,1.6
					c4.6,3.2,6.4,9.3,9.1,13.9c6.9,11.6,18.5,9.7,30.5,11c11.4,1.2,22.9,4.3,34.3,5c19.3,1.3,38.3-11.8,56.8-15.7
					c8.9-1.9,17.5,0.1,26.3-3c11.9-4.2,22.9-11.2,34.1-17.1c10.4-5.4,20.7-11.1,32.7-9.4c8.2,1.2,16.3,2.9,24.5,4.1"/>
				<path class="st6" d="M16.8,325.7c6.9-0.4,18.3-3.3,23,3.3c6,8.5,4.2,24,5.2,33.8c0.8,8.3,1.2,19.2,10.3,22.2
					c6,2,13.5,1.9,19.7,3c9.8,1.7,27.7,1.9,35,9.1c8.9,8.8,4.5,25.9,15.9,32.8c8.9,5.5,24.1,6,34.3,7.9c6,1.1,12.2,2.7,18.3,3
					c9.3,0.4,18.1-3.1,26.7-6.4c10.9-4.2,21.5-9.4,32.7-12.9c9.3-3,18.7-3.2,27.7-7c25.4-10.8,47.3-35.6,76.2-35.2"/>
				<path class="st6" d="M17.1,280.4c11.6,2.4,37.2,3.1,41.2,16.1c3.2,10.5,1.9,22.8,2.3,33.6c0.3,8.2-0.2,21.3,8.2,25.5
					c10.1,5.1,27,5.2,38.1,6.6c5.6,0.7,13.1,0.1,17.9,3.1c4.6,2.8,6.7,8.3,9,12.9c2,4.2,3.9,8.7,7.9,11.4c5,3.4,12.1,2.4,17.9,2.5
					c13.6,0.2,27.5,1.1,41,0.5c21.6-1,41-14.7,60.9-21.9c10-3.6,20.5-3.7,30.2-7.9c16.8-7.4,32.2-18.7,48.1-27.9"/>
				<path class="st6" d="M9.1,251.3c14.3-4.1,32.3,1.5,47.2,2.4c7.4,0.4,14.9-1.3,19.4,5.4c5.2,7.7,4.2,21,5.1,30
					c0.7,6.9,1,18.9,8.4,22.3c5,2.3,13.8,0.8,19.4,0.9c12.2,0.1,28.5-2.5,40.1,1.1c10.9,3.4,10.5,17.3,18.5,23.8
					c8.2,6.7,27.3,3.3,37.5,3.4c18.2,0.2,32.4,0.1,49.6-7.1c12.3-5.1,24.2-11.4,36.8-15.7c4.4-1.4,8.9-2.5,13.4-3.1
					c8.7-1.2,14.7-4.2,22.6-8.2"/>
				<path class="st6" d="M-6.4,235c12.3-10.5,27.2-26.9,42.9-32.2c7.4-2.5,16.8-1,24.5-0.9c10.4,0.1,35.6-4.3,41.3,6
					c4.3,7.6,3.5,18.5,4.3,26.9c0.6,6.7,0.5,20,7.3,24.2c4.6,2.8,13.9,1.4,19.1,1.5l19.6,0.2c11.2,0.1,24-2.5,30.7,8.3
					c2.9,4.6,4.2,10.5,7.9,14.6c4.7,5.2,10.4,4.8,16.9,4.9c14.7,0.2,29.6,1,44.3,0.6c24.9-0.8,47.7-17.9,71.1-25.1"/>
				<path class="st6" d="M-15.3,206.4c16.2-5.6,28.9-17.8,41.8-28.8c10.6-9.1,22.7-21.8,36.2-26.3c12.8-4.2,30.5-1.1,44-1
					c6.1,0.1,15.4-1.8,20,3.1c5.3,5.7,5,16.6,5.7,23.9s-0.1,21.8,5.5,27.8c4.5,4.8,12.5,3.3,18.5,3.4c12.7,0.2,25.7-0.5,38.4,0.5
					c14.7,1.1,14.1,11.5,21.9,21.5c7.9,10.1,26.6,6.2,38,6.3c7.3,0.1,14.5,0.2,21.7,0.3c14,0.1,26.1-5.7,38.8-11.2"/>
			</g>
		</g>
		<path class="st7" d="M250.6,307.3c-10.3-1.6-20,5.6-21.5,15.9c-1.6,10.3,5.6,20,15.9,21.5c10.3,1.6,20-5.6,21.5-15.9
			c0.1-0.6,0.2-1.3,0.2-1.9C257,325.5,250.1,317,250.6,307.3z"/>
		<path class="st8" d="M257.5,293.6c-4.1,3.4-6.6,8.4-6.9,13.7c9.6,1.4,16.6,9.9,16.1,19.6c10.3,1.5,19.9-5.6,21.5-15.9
			c1.5-10.3-5.6-19.9-15.9-21.5C267,288.7,261.6,290.2,257.5,293.6z"/>
		
			<ellipse transform="matrix(0.7732 -0.6342 0.6342 0.7732 -142.4591 235.931)" class="st7" cx="258.6" cy="317.1" rx="4.9" ry="12.7"/>
	</g>
	<g>
		<g>
			<g>
				<path class="st3" d="M136,277.8L136,277.8l0.8-7.5l7.4,0.8l0,0l-0.7,7.4L136,277.8z M133.3,271l-0.7,6.5l1.5,1.8l0,0l1.5,1.8
					l6.4,0.6l4.8-3.9l0.7-6.5l-1.5-1.8l0,0l-1.5-1.8l-6.4-0.6L133.3,271L133.3,271z"/>
				<path class="st3" d="M139.5,282.2L139.5,282.2l0.8-7.5l7.4,0.8l0,0l-0.8,7.5L139.5,282.2z M136.9,275.4l-0.7,6.5l1.5,1.8l0,0
					l1.5,1.8l6.4,0.7l4.8-3.9l0.7-6.5l-1.5-1.8l0,0l-1.5-1.8l-6.4-0.6L136.9,275.4z"/>
				<g>
					<path class="st3" d="M162.3,263.2l-2.8,2.3c-1.5,1.3-2.5,0.1-2.5,0.1l-2.9-3.5l1.6-1.3l2.2,2.7c0,0,0.6,0.8,2-0.4
						c1.4-1.2,0.8-1.9,0.8-1.9l-2.2-2.7l1.6-1.3l2.8,3.5C162.9,260.8,163.9,261.9,162.3,263.2"/>
					<polygon class="st3" points="171.3,255.9 167.4,251.3 168.9,250.1 171.7,253.6 175.1,250.9 176,252 					"/>
					
						<rect x="174.8" y="245.4" transform="matrix(0.7746 -0.6324 0.6324 0.7746 -117.4626 167.1146)" class="st3" width="1.8" height="6"/>
					<path class="st3" d="M197.3,231.3l-1.7,1.4l-0.4-2.3L197.3,231.3z M196.1,235.6l-0.2-1.4l2.9-2.3l1.3,0.5l1.8-1.5l-6.6-2.4
						l-1.8,1.5l1,6.9L196.1,235.6L196.1,235.6z"/>
					<polygon class="st3" points="202.3,230.5 198.5,225.9 200.6,224.2 206.3,225.5 203.4,221.9 204.7,220.9 208.5,225.5 
						206.4,227.2 200.8,225.9 203.6,229.5 					"/>
					<polygon class="st3" points="209.5,224.7 205.6,220.1 207,218.9 208.6,220.9 209.7,216.8 211.8,215.1 210.6,219.3 215.9,219.5 
						213.8,221.2 209.9,221 209.6,222 210.8,223.6 					"/>
					<path class="st3" d="M182.2,244.2c0.2,0.3,0.2,0.7-0.1,1l-2,1.6c-0.3,0.2-0.7,0.2-1-0.1l-1.2-1.4c-0.2-0.3-0.2-0.7,0.1-1l2-1.6
						c0.3-0.2,0.7-0.2,1,0.1l1.2-1l-0.5-0.6c-0.4-0.5-1.2-0.6-1.8-0.2l-3.6,2.9c-0.5,0.4-0.6,1.2-0.2,1.8l2.2,2.7
						c0.4,0.5,1.2,0.6,1.8,0.2l3.6-2.9c0.5-0.4,0.6-1.2,0.2-1.8l-0.5-0.6L182.2,244.2z"/>
					<path class="st3" d="M151.7,266.2l-1.4,1.1l0.8,0.9l2.2-1.8c0,0,0.3-0.4,0-0.8c-0.3-0.4-0.8-0.2-0.8-0.2l-1.1,0.9l-1-1.2
						l1.8-1.4c0,0,1.2-0.9,2.6,0.8c1.4,1.7,0.3,2.8,0.3,2.8l-2.8,2.3l0.9,1.2l-1.5,1.2l-3.8-4.7l2.9-2.4L151.7,266.2L151.7,266.2z"
						/>
					<path class="st3" d="M167.3,259.2l-2.5,2.1l-3.8-4.7l2.7-2.2l0.8,1l-1.4,1.1l0.8,0.9l2.5-2.1c0,0,0.3-0.4,0-0.8
						c-0.3-0.4-0.8-0.2-0.8-0.2l-1.3,1l-0.8-1l1.9-1.6c0,0,1-1.1,2.1,0.3c0,0,0.9,1.1,0.3,1.5c0,0,0.6-0.3,1.5,0.7
						c0,0,1,1.2-0.1,2.1L167.3,259.2l-0.9-1l1.4-1.1c0,0,0.3-0.4,0-0.8c-0.3-0.4-0.8-0.2-0.8-0.2l-2.5,2.1l0.8,0.9l1.2-1
						L167.3,259.2z"/>
					<path class="st3" d="M191,239.8l-2.5,2.1l-3.8-4.7l2.7-2.2l0.8,1l-1.4,1.1l0.8,0.9l2.5-2.1c0,0,0.3-0.4,0-0.8
						c-0.3-0.4-0.8-0.2-0.8-0.2l-1.3,1l-0.8-1l1.9-1.6c0,0,1-1.1,2.1,0.3c0,0,0.9,1.1,0.3,1.5c0,0,0.6-0.3,1.5,0.7
						c0,0,1,1.2-0.1,2.1L191,239.8l-0.9-1l1.4-1.1c0,0,0.3-0.4,0-0.8c-0.3-0.4-0.8-0.2-0.8-0.2l-2.5,2.1l0.8,0.9l1.2-1L191,239.8
						L191,239.8z"/>
				</g>
			</g>
		</g>
	</g>
</g>
<g>
	<g>
		
			<linearGradient id="SVGID_00000171695689132252798350000014655752932982849446_" gradientUnits="userSpaceOnUse" x1="144.5064" y1="156.5663" x2="437.4652" y2="280.9191" gradientTransform="matrix(0.981 0.1939 0.1939 -0.981 -54.1004 281.1761)">
			<stop  offset="1.973624e-02" style="stop-color:#190D34"/>
			<stop  offset="1" style="stop-color:#412384"/>
		</linearGradient>
		<path style="fill:url(#SVGID_00000171695689132252798350000014655752932982849446_);" d="M171.3,12.7l238.9,47.2
			c10.9,2.2,18.1,12.8,15.9,23.7l-26.5,133.9c-2.2,10.9-12.8,18.1-23.7,15.9L137,186.2c-10.9-2.2-18.1-12.8-15.9-23.7l26.5-133.9
			C149.7,17.6,160.4,10.5,171.3,12.7z"/>
		<g>
			<defs>
				<path id="SVGID_00000001662491685868637980000003173649243737323945_" d="M171.3,12.7l238.9,47.2c10.9,2.2,18.1,12.8,15.9,23.7
					l-26.5,133.9c-2.2,10.9-12.8,18.1-23.7,15.9L137,186.2c-10.9-2.2-18.1-12.8-15.9-23.7l26.5-133.9
					C149.7,17.6,160.4,10.5,171.3,12.7z"/>
			</defs>
			<clipPath id="SVGID_00000075870984882741529080000008601821444742401465_">
				<use xlink:href="#SVGID_00000001662491685868637980000003173649243737323945_"  style="overflow:visible;"/>
			</clipPath>
			<g style="clip-path:url(#SVGID_00000075870984882741529080000008601821444742401465_);">
				<polygon class="st11" points="219,122.8 223.8,-20.4 119,20.2 				"/>
				<polygon class="st11" points="306.3,229.4 397.3,28.8 500.4,125.4 				"/>
			</g>
		</g>
		<polygon class="st3" points="337.5,179.3 329.6,200.1 335.5,201.2 343.4,180.5 		"/>
		<path class="st3" d="M328.9,177.6l-8.6,13.5l-0.2-2.3c-0.6-2.9-3.1-7.4-6.4-10.5l1.7,19l6.2,1.2l13.5-19.6L328.9,177.6z"/>
		<path class="st3" d="M320.1,177.5c-0.1-1.4-1-2-2.2-2.2l-9.1-1.8l-0.2,0.4c6.7,3.1,10.6,8.2,11.5,13.5L320.1,177.5z"/>
		<path class="st3" d="M354.4,186.9c1.5,0.3,2.9,0.8,4.2,1.7l0.5,0.4l1.7-4.5c-1.6-0.9-3.3-1.6-5.1-1.9c-5.8-1.1-10.5,1-11.3,5.1
			c-0.6,3.1,2,5.4,4,6.9c2,1.5,2.7,2.3,2.5,3.3c-0.3,1.4-2.2,1.7-3.9,1.4c-1.9-0.3-3.7-1.1-5.3-2.2l-0.7-0.5l-1.8,4.6
			c1.3,0.9,3.7,1.9,6.3,2.4c6.2,1.2,10.7-0.9,11.6-5.3c0.5-2.4-0.7-4.6-3.8-6.8c-1.9-1.4-3-2.3-2.8-3.3
			C350.9,187.2,352.1,186.5,354.4,186.9z"/>
		<path class="st3" d="M376,186.9l-4.5-0.9c-1.4-0.3-2.5-0.1-3.4,1.2l-12.6,18l6.1,1.2c0,0,1.5-2.5,1.9-3l7.5,1.5
			c0,0.8,0.1,3.4,0.1,3.4l5.4,1.1L376,186.9z M366,199.4c0.7-1.1,3.5-5.5,3.5-5.5s0.7-1.1,1.2-1.9l0,1.9c0,0,0.1,5.4,0.1,6.5
			L366,199.4z"/>
		<path class="st3" d="M358.9,72.8c-0.7-0.1-1.3-0.4-1.8-0.7c-0.5-0.4-0.9-0.8-1.1-1.3c-0.3-0.5-0.4-1-0.4-1.7l1.7-0.1
			c0,0.4,0.1,0.8,0.2,1.1s0.4,0.6,0.7,0.8s0.6,0.4,1,0.4c0.6,0.1,1.1,0.1,1.5-0.1c0.4-0.2,0.7-0.5,0.8-0.9c0.1-0.3,0-0.5-0.1-0.7
			s-0.4-0.4-0.7-0.6c-0.3-0.2-0.8-0.4-1.4-0.6c-0.7-0.3-1.2-0.6-1.7-0.9s-0.7-0.6-0.9-1c-0.2-0.4-0.2-0.9-0.1-1.4
			c0.1-0.6,0.4-1,0.7-1.4c0.4-0.4,0.8-0.6,1.4-0.7c0.6-0.1,1.2-0.1,1.9,0c0.6,0.1,1.2,0.3,1.6,0.7s0.8,0.7,1,1.2
			c0.2,0.4,0.4,1,0.4,1.5l-1.6,0.1c0-0.6-0.2-1-0.5-1.4c-0.3-0.3-0.7-0.6-1.2-0.7c-0.5-0.1-1-0.1-1.4,0.1c-0.4,0.2-0.6,0.4-0.7,0.8
			c0,0.2,0,0.5,0.1,0.6c0.1,0.2,0.3,0.4,0.6,0.5c0.3,0.2,0.7,0.4,1.2,0.6c0.7,0.3,1.3,0.6,1.8,0.9s0.8,0.7,1,1.1
			c0.2,0.4,0.2,0.9,0.1,1.5c-0.1,0.6-0.4,1.1-0.8,1.4c-0.4,0.4-0.9,0.6-1.5,0.8C360.3,72.9,359.6,72.9,358.9,72.8 M366.3,74.2
			c0.3,0.1,0.6,0.1,1,0.1l0.2-1.2c-0.2,0-0.4,0-0.6-0.1c-0.3-0.1-0.5-0.2-0.6-0.3c-0.1-0.1-0.2-0.3-0.1-0.6l0.7-3.6l1.4,0.3l0.2-1.2
			l-1.4-0.3l0.3-1.7l-1.5-0.3l-0.3,1.7l-1-0.2l-0.2,1.2l1,0.2l-0.7,3.7c-0.1,0.6-0.1,1.1,0.2,1.5C365.1,73.8,365.6,74,366.3,74.2
			 M370.9,75.1c0.4,0.1,0.9,0.1,1.3,0c0.4-0.1,0.8-0.3,1.1-0.6l-0.2,0.9l1.5,0.3L376,69l-1.5-0.3l-0.2,0.9c-0.2-0.4-0.5-0.7-0.8-1
			c-0.3-0.3-0.7-0.4-1.2-0.5c-0.6-0.1-1.2-0.1-1.7,0.1c-0.5,0.2-1,0.6-1.3,1c-0.4,0.5-0.6,1.1-0.8,1.8c-0.1,0.7-0.1,1.3,0,1.9
			c0.2,0.6,0.4,1.1,0.8,1.5C369.8,74.8,370.3,75,370.9,75.1 M371.5,73.9c-0.4-0.1-0.7-0.2-0.9-0.5s-0.4-0.5-0.5-0.9
			c-0.1-0.4-0.1-0.8,0-1.2c0.1-0.7,0.4-1.2,0.8-1.6c0.4-0.3,0.9-0.4,1.5-0.3c0.6,0.1,1,0.4,1.2,0.9s0.3,1,0.2,1.8
			c-0.1,0.5-0.2,0.8-0.5,1.1c-0.2,0.3-0.5,0.5-0.8,0.6C372.3,74,371.9,74,371.5,73.9 M377.4,76.2l0.6-3.2c0.1-0.6,0.4-1.1,0.8-1.4
			s0.9-0.4,1.4-0.3c0.2,0,0.3,0.1,0.4,0.1L381,70c-0.1,0-0.1-0.1-0.2-0.1c-0.1,0-0.1,0-0.2-0.1c-0.4-0.1-0.8,0-1.1,0.1
			c-0.3,0.2-0.6,0.4-0.9,0.8l0.2-1.2l-1.5-0.3l-1.3,6.7L377.4,76.2L377.4,76.2z M380.6,76.8l1.5,0.3l1.9-9.5l-1.5-0.3L380.6,76.8z
			 M385.6,69.9c0.3,0.1,0.5,0,0.8-0.2c0.2-0.1,0.4-0.4,0.4-0.6c0.1-0.3,0-0.5-0.2-0.8c-0.2-0.2-0.4-0.4-0.6-0.4s-0.5,0-0.8,0.2
			c-0.2,0.2-0.4,0.4-0.4,0.6c-0.1,0.3,0,0.5,0.1,0.7C385.1,69.7,385.3,69.9,385.6,69.9 M383.3,77.4l1.5,0.3l1.3-6.7l-1.5-0.3
			L383.3,77.4z M387.6,78.2l0.7-3.6c0.1-0.4,0.2-0.8,0.4-1c0.2-0.3,0.4-0.5,0.7-0.6c0.3-0.1,0.6-0.2,0.9-0.1
			c0.4,0.1,0.8,0.3,0.9,0.6c0.2,0.3,0.2,0.7,0.1,1.2l-0.8,4l1.5,0.3l0.8-4.1c0.2-0.9,0.1-1.6-0.2-2.1c-0.3-0.6-0.9-0.9-1.6-1.1
			c-0.5-0.1-0.9-0.1-1.3,0.1c-0.4,0.1-0.7,0.4-1,0.7l0.2-1l-1.5-0.3l-1.3,6.7L387.6,78.2L387.6,78.2z M396,82.7
			c0.7,0.1,1.3,0.1,1.8,0c0.5-0.1,1-0.4,1.3-0.8c0.4-0.4,0.6-0.9,0.7-1.5l1.3-6.4l-1.5-0.3l-0.2,0.9c-0.2-0.4-0.4-0.7-0.8-1
			c-0.3-0.3-0.7-0.4-1.2-0.5c-0.6-0.1-1.2-0.1-1.7,0.1c-0.5,0.2-1,0.5-1.3,1c-0.4,0.5-0.6,1-0.7,1.7c-0.1,0.7-0.1,1.3,0.1,1.8
			c0.2,0.6,0.4,1,0.9,1.4c0.4,0.4,0.9,0.6,1.5,0.7c0.4,0.1,0.9,0.1,1.3,0c0.4-0.1,0.8-0.3,1.1-0.6l-0.2,0.9
			c-0.1,0.4-0.2,0.7-0.4,0.9c-0.2,0.2-0.4,0.4-0.7,0.5c-0.3,0.1-0.6,0.1-1,0c-0.4-0.1-0.8-0.2-1-0.5c-0.3-0.2-0.4-0.6-0.5-0.9
			l-1.5,0.1c0.1,0.7,0.3,1.2,0.8,1.7C394.6,82.2,395.2,82.5,396,82.7 M396.7,78.6c-0.4-0.1-0.7-0.2-0.9-0.5s-0.4-0.5-0.5-0.9
			c-0.1-0.3-0.1-0.7,0-1.2c0.1-0.7,0.4-1.2,0.8-1.5s0.9-0.4,1.5-0.3c0.6,0.1,1,0.4,1.2,0.8c0.3,0.5,0.3,1,0.2,1.7
			c-0.1,0.4-0.2,0.8-0.5,1.1c-0.2,0.3-0.5,0.5-0.8,0.6C397.4,78.7,397.1,78.7,396.7,78.6 M358,84.6c0.6,0.1,1.1,0.1,1.5,0
			c0.5-0.1,0.8-0.4,1.1-0.7c0.3-0.4,0.5-0.8,0.6-1.3c0.1-0.5,0.1-1-0.1-1.5s-0.5-0.8-1-1.1c0.4-0.1,0.8-0.3,1.1-0.6
			c0.3-0.3,0.5-0.7,0.6-1.1c0.1-0.4,0.1-0.9-0.1-1.3c-0.1-0.4-0.4-0.8-0.7-1.1c-0.4-0.3-0.8-0.5-1.4-0.6l-4.4-0.9l-1.8,9.2L358,84.6
			L358,84.6z M356,78.7l0.5-2.6l2.6,0.5c0.4,0.1,0.8,0.3,1,0.5c0.2,0.3,0.3,0.6,0.2,1c-0.1,0.4-0.3,0.7-0.6,0.9
			c-0.3,0.2-0.7,0.2-1.1,0.2L356,78.7z M355.2,82.7l0.6-2.9l2.8,0.5c0.5,0.1,0.8,0.3,1,0.6c0.2,0.3,0.3,0.7,0.2,1.1
			c-0.1,0.4-0.3,0.8-0.6,1c-0.3,0.2-0.7,0.3-1.2,0.2L355.2,82.7L355.2,82.7z M364.5,86.1c0.4,0.1,0.9,0.1,1.3,0
			c0.4-0.1,0.8-0.3,1.1-0.6l-0.2,0.9l1.5,0.3l1.3-6.7l-1.5-0.3l-0.2,0.9c-0.2-0.4-0.5-0.7-0.8-1c-0.3-0.3-0.7-0.4-1.2-0.5
			c-0.6-0.1-1.2-0.1-1.7,0.1c-0.5,0.2-1,0.6-1.3,1c-0.4,0.5-0.6,1.1-0.8,1.8c-0.1,0.7-0.1,1.3,0,1.9c0.2,0.6,0.4,1.1,0.8,1.5
			C363.4,85.7,363.9,86,364.5,86.1 M365.1,84.9c-0.4-0.1-0.7-0.2-0.9-0.5s-0.4-0.5-0.5-0.9c-0.1-0.4-0.1-0.8,0-1.2
			c0.1-0.7,0.4-1.2,0.8-1.6c0.4-0.3,0.9-0.4,1.5-0.3c0.6,0.1,1,0.4,1.2,0.9s0.3,1,0.2,1.8c-0.1,0.5-0.2,0.8-0.5,1.1
			c-0.2,0.3-0.5,0.5-0.8,0.6C365.8,84.9,365.5,85,365.1,84.9 M371,87.2l0.7-3.6c0.1-0.4,0.2-0.8,0.4-1c0.2-0.3,0.4-0.5,0.7-0.6
			s0.6-0.2,0.9-0.1c0.4,0.1,0.8,0.3,0.9,0.6c0.2,0.3,0.2,0.7,0.1,1.2l-0.8,4l1.5,0.3l0.8-4.1c0.2-0.9,0.1-1.6-0.2-2.1
			c-0.3-0.6-0.9-0.9-1.6-1.1c-0.5-0.1-0.9-0.1-1.3,0.1c-0.4,0.1-0.7,0.4-1,0.7l0.2-1l-1.5-0.3l-1.3,6.7L371,87.2L371,87.2z
			 M378.3,88.6l0.4-2.2l0.8-0.5l1.6,3.3l1.8,0.4l-2.1-4.5l3.4-2.2l-1.9-0.4l-3.1,2l1.1-5.4l-1.5-0.3l-1.9,9.5L378.3,88.6z"/>
		<path class="st3" d="M341.8,59.3c-5.9-1.2-11.6,2.7-12.8,8.5c-1.2,5.9,2.7,11.6,8.5,12.8c5.9,1.2,11.6-2.7,12.8-8.5
			C351.5,66.1,347.7,60.4,341.8,59.3z M335.5,68.5c0.7-3.7,4.3-6.1,8-5.3l0.6,0.1l-0.5,2.4l-0.6-0.1c-2.3-0.5-4.6,1.1-5.1,3.4
			l-0.1,0.6l-2.4-0.5L335.5,68.5z M343.8,71.4c-0.7,3.7-4.3,6.1-8,5.4l-0.6-0.1l0.5-2.4l0.6,0.1c2.3,0.5,4.6-1.1,5.1-3.4l0.1-0.6
			l2.4,0.5L343.8,71.4z"/>
		<path class="st12" d="M343.9,70.8l-0.1,0.6c-0.7,3.7-4.3,6.1-8,5.4l-0.6-0.1l0.5-2.4l0.6,0.1c2.3,0.5,4.6-1.1,5.1-3.4l0.1-0.6
			L343.9,70.8z"/>
		<path class="st12" d="M344.1,63.3l-0.5,2.4l-0.6-0.1c-2.3-0.5-4.6,1.1-5.1,3.4l-0.1,0.6l-2.4-0.5l0.1-0.6c0.7-3.7,4.3-6.1,8-5.3
			L344.1,63.3z"/>
	</g>
	<path class="st13" d="M197.8,101.1l-29.4-5.8c-2.2-0.4-4.4,1-4.9,3.3l-4.2,21.1c-0.4,2.2,1,4.4,3.3,4.9l29.4,5.8
		c2.2,0.4,4.4-1,4.9-3.3l4.2-21.1C201.5,103.7,200,101.5,197.8,101.1z M195.7,115.3l-8.9-1.7l0.8-4.1c0.1-0.3,0.4-0.6,0.7-0.5
		l8.3,1.6L195.7,115.3z M186.6,114.6l8.9,1.7l-0.9,4.8l-8.9-1.7L186.6,114.6z M197.1,113.7l1.2,0.2l-0.9,4.8l-1.2-0.2L197.1,113.7z
		 M197.3,112.6l0.9-4.8l1.2,0.2l-0.9,4.8L197.3,112.6z M196.8,109.4l-8.3-1.6c-1-0.2-1.9,0.4-2.1,1.4l-3.1,15.9l-10.6-2.1l4.4-22.4
		l20,3.9c0.3,0.1,0.6,0.4,0.5,0.7L196.8,109.4z M173.9,111l-8.9-1.7l0.9-4.8l8.9,1.7L173.9,111z M163.4,112l-1.2-0.2l0.9-4.8
		l1.2,0.2L163.4,112z M164.8,110.4l8.9,1.7l-0.9,4.8l-8.9-1.7L164.8,110.4z M183.2,100.6l0.2-1.2l10.1,2l-0.2,1.2L183.2,100.6z
		 M182.1,100.4l-10.1-2l0.2-1.2l10.1,2L182.1,100.4z M176,100.4l-0.9,4.8l-8.9-1.7l0.8-4.1c0.1-0.3,0.4-0.6,0.7-0.5L176,100.4z
		 M164.5,106.1l-1.2-0.2l0.9-4.8l1.2,0.2L164.5,106.1z M161.9,112.8l1.2,0.2l-0.9,4.8l-1.2-0.2L161.9,112.8z M163.7,116.2l8.9,1.7
		l-0.9,4.8l-8.3-1.6c-0.3-0.1-0.6-0.4-0.5-0.7L163.7,116.2z M177.3,125l-0.2,1.2l-10.1-2l0.2-1.2L177.3,125z M178.4,125.2l10.1,2
		l-0.2,1.2l-10.1-2L178.4,125.2z M184.5,125.3l0.9-4.8l8.9,1.7l-0.8,4.1c-0.1,0.3-0.4,0.6-0.7,0.5L184.5,125.3z M196,119.5l1.2,0.2
		l-0.9,4.8l-1.2-0.2L196,119.5z M200,105.7l-0.2,1.2l-1.2-0.2l0.2-1.2c0.2-1-0.4-1.9-1.4-2.1l-3-0.6l0.2-1.2l3,0.6
		C199.2,102.5,200.3,104.1,200,105.7z M168.2,96.4l3,0.6l-0.2,1.2l-3-0.6c-1-0.2-1.9,0.4-2.1,1.4l-0.2,1.2l-1.2-0.2l0.2-1.2
		C165,97.1,166.6,96.1,168.2,96.4z M160.5,119.9l0.2-1.2l1.2,0.2l-0.2,1.2c-0.2,1,0.4,1.9,1.4,2.1l3,0.6l-0.2,1.2l-3-0.6
		C161.3,123.2,160.2,121.6,160.5,119.9z M192.3,129.2l-3-0.6l0.2-1.2l3,0.6c1,0.2,1.9-0.4,2.1-1.4l0.2-1.2l1.2,0.2l-0.2,1.2
		C195.5,128.5,193.9,129.6,192.3,129.2z"/>
</g>
<path class="st13" d="M83.4,376.3l-22.9,19.3c-1.8,1.5-2,4.1-0.5,5.9l13.9,16.5c1.5,1.8,4.1,2,5.9,0.5l22.9-19.3
	c1.8-1.5,2-4.1,0.5-5.9l-13.9-16.5C87.7,375,85.1,374.8,83.4,376.3z M93.1,386.8l-6.9,5.8l-2.7-3.2c-0.2-0.3-0.2-0.7,0.1-0.9
	l6.4-5.4L93.1,386.8z M86.9,393.5l6.9-5.8l3.1,3.7l-6.9,5.8L86.9,393.5z M92.8,384.7l1-0.8l3.1,3.7l-1,0.8L92.8,384.7z M92,383.8
	l-3.1-3.7l1-0.8L93,383L92,383.8z M89.2,382.3l-6.4,5.4c-0.7,0.6-0.8,1.7-0.2,2.5L93,402.6l-8.3,7L70,392.1L85.6,379
	c0.3-0.2,0.7-0.2,0.9,0.1L89.2,382.3z M76.2,401.1l-6.9,5.8l-3.1-3.7l6.9-5.8L76.2,401.1z M70.3,410l-1,0.8l-3.1-3.7l1-0.8L70.3,410
	z M70,407.8l6.9-5.8l3.1,3.7l-6.9,5.8L70,407.8z M73.9,387.4l-0.8-1l7.8-6.6l0.8,1L73.9,387.4z M73,388.1l-7.8,6.6l-0.8-1l7.8-6.6
	L73,388.1z M69.2,392.8l3.1,3.7l-6.9,5.8l-2.7-3.2c-0.2-0.3-0.2-0.7,0.1-0.9L69.2,392.8z M66.5,405.4l-1,0.8l-3.1-3.7l1-0.8
	L66.5,405.4z M70.1,411.7l1-0.8l3.1,3.7l-1,0.8L70.1,411.7z M73.8,412.4l6.9-5.8l3.1,3.7l-6.4,5.4c-0.3,0.2-0.7,0.2-0.9-0.1
	L73.8,412.4z M89.2,407.3l0.8,1l-7.8,6.6l-0.8-1L89.2,407.3z M90.1,406.6l7.8-6.6l0.8,1l-7.8,6.6L90.1,406.6z M93.9,401.8l-3.1-3.7
	l6.9-5.8l2.7,3.2c0.2,0.3,0.2,0.7-0.1,0.9L93.9,401.8z M96.6,389.3l1-0.8l3.1,3.7l-1,0.8L96.6,389.3z M88.3,377.5l0.8,0.9l-1,0.8
	l-0.8-0.9c-0.6-0.7-1.7-0.8-2.5-0.2l-2.3,2l-0.8-1l2.3-2C85.4,376.1,87.3,376.2,88.3,377.5z M61.2,396.4l2.3-2l0.8,1l-2.3,2
	c-0.7,0.6-0.8,1.7-0.2,2.5l0.8,0.9l-1,0.8l-0.8-0.9C59.8,399.4,59.9,397.5,61.2,396.4z M74.7,417.2l-0.8-0.9l1-0.8l0.8,0.9
	c0.6,0.7,1.7,0.8,2.5,0.2l2.3-2l0.8,1l-2.3,2C77.7,418.6,75.8,418.4,74.7,417.2z M101.9,398.2l-2.3,2l-0.8-1l2.3-2
	c0.7-0.6,0.8-1.7,0.2-2.5l-0.8-0.9l1-0.8l0.8,0.9C103.3,395.2,103.2,397.2,101.9,398.2z"/>
<path class="st13" d="M298,385.5l-22.9,19.3c-1.8,1.5-2,4.1-0.5,5.9l13.9,16.5c1.5,1.8,4.1,2,5.9,0.5l22.9-19.3
	c1.8-1.5,2-4.1,0.5-5.9L303.8,386C302.3,384.3,299.7,384.1,298,385.5z M307.7,396.1l-6.9,5.8l-2.7-3.2c-0.2-0.3-0.2-0.7,0.1-0.9
	l6.4-5.4L307.7,396.1z M301.5,402.8l6.9-5.8l3.1,3.7l-6.9,5.8L301.5,402.8z M307.4,393.9l1-0.8l3.1,3.7l-1,0.8L307.4,393.9z
	 M306.6,393.1l-3.1-3.7l1-0.8l3.1,3.7L306.6,393.1z M303.9,391.5l-6.4,5.4c-0.7,0.6-0.8,1.7-0.2,2.5l10.4,12.4l-8.3,7l-14.7-17.4
	l15.6-13.1c0.3-0.2,0.7-0.2,0.9,0.1L303.9,391.5z M290.8,410.4l-6.9,5.8l-3.1-3.7l6.9-5.8L290.8,410.4z M284.9,419.2l-1,0.8
	l-3.1-3.7l1-0.8L284.9,419.2z M284.6,417.1l6.9-5.8l3.1,3.7l-6.9,5.8L284.6,417.1z M288.5,396.6l-0.8-1l7.8-6.6l0.8,1L288.5,396.6z
	 M287.6,397.4l-7.8,6.6l-0.8-1l7.8-6.6L287.6,397.4z M283.8,402.1l3.1,3.7l-6.9,5.8l-2.7-3.2c-0.2-0.3-0.2-0.7,0.1-0.9L283.8,402.1z
	 M281.1,414.7l-1,0.8l-3.1-3.7l1-0.8L281.1,414.7z M284.7,420.9l1-0.8l3.1,3.7l-1,0.8L284.7,420.9z M288.4,421.7l6.9-5.8l3.1,3.7
	l-6.4,5.4c-0.3,0.2-0.7,0.2-0.9-0.1L288.4,421.7z M303.8,416.5l0.8,1l-7.8,6.6l-0.8-1L303.8,416.5z M304.7,415.8l7.8-6.6l0.8,1
	l-7.8,6.6L304.7,415.8z M308.5,411.1l-3.1-3.7l6.9-5.8l2.7,3.2c0.2,0.3,0.2,0.7-0.1,0.9L308.5,411.1z M311.2,398.5l1-0.8l3.1,3.7
	l-1,0.8L311.2,398.5z M303,386.8l0.8,0.9l-1,0.8l-0.8-0.9c-0.6-0.7-1.7-0.8-2.5-0.2l-2.3,2l-0.8-1l2.3-2
	C300,385.3,301.9,385.5,303,386.8z M275.8,405.7l2.3-2l0.8,1l-2.3,2c-0.7,0.6-0.8,1.7-0.2,2.5l0.8,0.9l-1,0.8l-0.8-0.9
	C274.4,408.7,274.5,406.8,275.8,405.7z M289.3,426.4l-0.8-0.9l1-0.8l0.8,0.9c0.6,0.7,1.7,0.8,2.5,0.2l2.3-2l0.8,1l-2.3,2
	C292.3,427.9,290.4,427.7,289.3,426.4z M316.5,407.5l-2.3,2l-0.8-1l2.3-2c0.7-0.6,0.8-1.7,0.2-2.5l-0.8-0.9l1-0.8l0.8,0.9
	C317.9,404.5,317.8,406.4,316.5,407.5z"/>
</svg>
