<svg id="Layer_1" data-name="Layer 1" xmlns="http://www.w3.org/2000/svg" xmlns:xlink="http://www.w3.org/1999/xlink" viewBox="0 0 600 350.01"><defs><style>.cls-1{fill:url(#linear-gradient);}.cls-2{fill:url(#linear-gradient-2);}</style><linearGradient id="linear-gradient" x1="21" y1="175.01" x2="578.03" y2="175.01" gradientUnits="userSpaceOnUse"><stop offset="0" stop-color="#432f82"/><stop offset="0.86" stop-color="#da395f"/></linearGradient><linearGradient id="linear-gradient-2" x1="339.51" y1="175.01" x2="579" y2="175.01" xlink:href="#linear-gradient"/></defs><path class="cls-1" d="M502.32,168.71,431.85,111.8A7.88,7.88,0,0,0,419,117.94v29.63H260.49V75A63.56,63.56,0,0,0,197,11.42H84.55A63.56,63.56,0,0,0,21,75V275.07a63.52,63.52,0,0,0,63.55,63.52H197a63.52,63.52,0,0,0,63.52-63.52V201H419v30.76a7.88,7.88,0,0,0,12.82,6.14L502.32,181A7.9,7.9,0,0,0,502.32,168.71ZM225.86,266.9a27.37,27.37,0,0,1-27.37,27.36H83.07A27.36,27.36,0,0,1,55.71,266.9V200.5l135.63-.32V147.44l-135.63.63V67.63A27.34,27.34,0,0,1,83.07,40.27H198.49a27.35,27.35,0,0,1,27.37,27.36Z"/><path class="cls-2" d="M579,75V275.07a63.51,63.51,0,0,1-63.51,63.52H403a63.52,63.52,0,0,1-63.52-63.52V231.84h34.91v47.1a23.12,23.12,0,0,0,23.1,23.1H519.94a23.13,23.13,0,0,0,23.14-23.1V72.09A23.14,23.14,0,0,0,519.94,49H397.52a23.13,23.13,0,0,0-23.1,23.14v47.22H339.51V75A63.56,63.56,0,0,1,403,11.42H515.49A63.55,63.55,0,0,1,579,75Z"/></svg>